<?xml version="1.0" encoding="UTF-8"?>
<svg version="1.1" xmlns="http://www.w3.org/2000/svg" width="512" height="512">
<path d="M0 0 C1.25193632 -0.00322445 2.50387263 -0.00644889 3.79374641 -0.00977105 C5.1855622 -0.00829987 6.57737788 -0.00673215 7.96919346 -0.00507832 C9.44576134 -0.00694606 10.92232872 -0.00924662 12.39889532 -0.01194364 C16.46197392 -0.01807249 20.52503198 -0.01792677 24.58811414 -0.01674926 C28.96787006 -0.01654553 33.34761933 -0.02206133 37.72737217 -0.02680683 C46.30980285 -0.03511965 54.89222667 -0.03786195 63.47466104 -0.03841921 C70.44868548 -0.03889403 77.42270765 -0.04094705 84.39673138 -0.04411983 C104.15860679 -0.05292776 123.92047676 -0.05753894 143.68235414 -0.05678936 C144.74812333 -0.0567494 145.81389252 -0.05670945 146.91195774 -0.05666828 C148.51255754 -0.05660696 148.51255754 -0.05660696 150.14549268 -0.0565444 C167.4462947 -0.05613778 184.74707496 -0.06571092 202.04787069 -0.07980665 C219.80164784 -0.09415762 237.55541438 -0.10107755 255.30919749 -0.10021287 C265.28088331 -0.09988048 275.25254634 -0.10264596 285.22422695 -0.11339092 C293.71285734 -0.12247906 302.20145459 -0.12468506 310.69008773 -0.1178815 C315.02280327 -0.11460788 319.35545516 -0.11458987 323.68816471 -0.12323475 C327.65252855 -0.13106351 331.61677787 -0.12970567 335.5811388 -0.12095062 C337.01716918 -0.11940761 338.45320796 -0.12126173 339.88922846 -0.12681069 C341.8380315 -0.13384383 343.78686935 -0.12739826 345.735672 -0.12025452 C346.81912413 -0.12047188 347.90257626 -0.12068925 349.01886028 -0.12091321 C352.98047594 0.21859474 355.85874555 1.07720392 358.71833611 3.88189602 C360.27541408 6.76731988 360.31521741 8.80084364 360.32948399 12.07644939 C360.34829121 13.90215466 360.34829121 13.90215466 360.36747837 15.76474285 C360.36630435 17.11032417 360.36484522 18.45590527 360.36312962 19.80148602 C360.37214733 21.22078588 360.38247457 22.64007794 360.3940134 24.05935955 C360.42160877 27.91026007 360.43087131 31.76101292 360.43686748 35.61199951 C360.44624458 39.63727777 360.47244741 43.66244544 360.4968729 47.68765545 C360.54055991 55.30901649 360.56909332 62.9303561 360.59219629 70.5518043 C360.61923618 79.22894182 360.66314841 87.9059682 360.70848501 96.58302641 C360.80136279 114.43150378 360.87302916 132.28001053 360.93075657 150.12863445 C363.34215299 148.03889454 365.75352256 145.94912365 368.16488743 143.85934734 C368.84467403 143.27023823 369.52446064 142.68112911 370.22484684 142.07416821 C373.54566551 139.19620102 376.86620057 136.31791267 380.18466282 133.4372282 C383.76356693 130.33074565 387.34624789 127.22864777 390.93075657 124.12863445 C391.54370579 123.59818523 392.15665501 123.06773602 392.78817844 122.52121258 C396.30242487 119.4829699 399.83228966 116.46461485 403.37753391 113.46261883 C404.80779277 112.23424184 406.20872394 110.97193406 407.60653782 109.70675945 C411.95536363 105.90587182 415.08129484 103.85424927 420.80575657 102.81613445 C427.61400081 101.48769655 431.37349788 97.54611831 436.12216282 92.87082195 C441.28157979 87.83339397 445.74819154 83.85115907 453.18075657 83.56613445 C460.83133499 84.10839425 465.01179133 88.65831267 469.93075657 94.12863445 C477.07353049 102.98119989 477.07353049 102.98119989 477.18075657 108.87863445 C477.20653782 109.7191032 477.23231907 110.55957195 477.25888157 111.42550945 C476.68717967 116.13524411 474.8876888 119.21436799 471.47763157 122.47238445 C470.55466282 123.18394695 469.63169407 123.89550945 468.68075657 124.62863445 C467.70493626 125.40336102 466.72911594 126.17808758 465.72372532 126.9762907 C464.09457863 128.23175899 462.45571583 129.47514498 460.79403782 130.6872282 C456.29895258 134.12923491 454.82450767 137.39660012 452.93075657 142.68332195 C450.03377527 149.76734654 443.67473522 154.10467853 437.85653782 158.7419157 C434.95001132 161.11292731 432.18704349 163.58527957 429.43075657 166.12863445 C424.98348545 170.22214537 420.38358194 174.05305944 415.68075657 177.84738445 C412.84976078 180.19582414 410.13692059 182.63773348 407.43075657 185.12863445 C402.98348545 189.22214537 398.38358194 193.05305944 393.68075657 196.84738445 C390.84976078 199.19582414 388.13692059 201.63773348 385.43075657 204.12863445 C380.99727327 208.20794505 376.4333001 212.06205604 371.73153782 215.8278532 C370.80728001 216.58711102 369.88302219 217.34636883 368.93075657 218.12863445 C368.27428631 218.58023918 367.61781604 219.0318439 366.94145274 219.49713361 C363.8126704 221.83316046 361.36487471 223.71513673 360.19249868 227.53241754 C359.91782207 230.43152339 359.8946501 233.23743361 359.95767307 236.14905071 C359.94552804 237.80044381 359.94552804 237.80044381 359.93313766 239.48519838 C359.91563055 243.17025032 359.95508643 246.85247298 359.99423313 250.53732586 C359.99317551 253.18053138 359.98892717 255.82354952 359.98060703 258.46672344 C359.9688436 264.15595116 359.98580445 269.84450532 360.02198124 275.53362179 C360.07392672 283.76441845 360.07782849 291.99470356 360.06935939 300.2256345 C360.05653912 313.58762002 360.07641446 326.9493369 360.11972141 340.31125164 C360.12359537 341.51005961 360.12359537 341.51005961 360.12754759 342.73308592 C360.13013529 343.53329981 360.13272298 344.33351371 360.13538909 345.15797651 C360.17201814 356.50756174 360.20086831 367.85713113 360.22030735 379.20675945 C360.22237196 380.40501305 360.22237196 380.40501305 360.22447827 381.62747379 C360.24676229 394.94265679 360.25290414 408.25781931 360.25078082 421.57301939 C360.25051622 429.78454999 360.26680808 437.9957542 360.30449906 446.20720015 C360.32966151 451.83060647 360.34137463 457.45393152 360.34248671 463.07739379 C360.34371685 466.32271178 360.35393862 469.56758466 360.37728786 472.81282902 C360.40175356 476.32953267 360.4018534 479.84542143 360.39590549 483.36218548 C360.40912287 484.38951152 360.42234025 485.41683757 360.43595815 486.47529471 C360.4060276 490.80668722 360.33306368 493.42526922 358.15168476 497.23903751 C354.35544591 500.46893091 350.72357584 500.25410728 345.86151314 500.25726891 C344.60957682 500.26049335 343.35764051 500.2637178 342.06776673 500.26703995 C340.67595094 500.26556877 339.28413526 500.26400105 337.89231968 500.26234722 C336.4157518 500.26421496 334.93918441 500.26651552 333.46261781 500.26921254 C329.39953922 500.27534139 325.33648116 500.27519568 321.273399 500.27401817 C316.89364308 500.27381444 312.5138938 500.27933024 308.13414097 500.28407574 C299.55171028 500.29238855 290.96928647 500.29513085 282.38685209 500.29568812 C275.41282765 500.29616293 268.43880548 500.29821595 261.46478176 500.30138874 C241.70290635 500.31019666 221.94103638 500.31480784 202.17915899 500.31405827 C201.11338981 500.31401831 200.04762062 500.31397835 198.9495554 500.31393719 C197.3489556 500.31387587 197.3489556 500.31387587 195.71602046 500.31381331 C178.41521844 500.31340669 161.11443817 500.32297983 143.81364245 500.33707555 C126.0598653 500.35142652 108.30609876 500.35834646 90.55231565 500.35748178 C80.58062982 500.35714939 70.6089668 500.35991486 60.63728619 500.37065983 C52.1486558 500.37974797 43.66005855 500.38195397 35.17142541 500.3751504 C30.83870987 500.37187678 26.50605798 500.37185878 22.17334843 500.38050365 C18.20898459 500.38833241 14.24473526 500.38697457 10.28037434 500.37821952 C8.84434395 500.37667651 7.40830518 500.37853064 5.97228468 500.3840796 C4.02348163 500.39111274 2.07464379 500.38466717 0.12584114 500.37752342 C-0.95761099 500.37774079 -2.04106313 500.37795816 -3.15734714 500.37818211 C-7.15500394 500.03558547 -10.02417484 499.19121447 -12.86045742 496.30740643 C-14.28391875 493.7416937 -14.43288417 492.18979435 -14.4098196 489.26828289 C-14.40959301 488.30758892 -14.40936642 487.34689495 -14.40913296 486.35708904 C-14.3936491 485.32779278 -14.37816525 484.29849651 -14.36221218 483.23800945 C-14.35796734 482.17825909 -14.3537225 481.11850872 -14.34934902 480.02664471 C-14.33256373 476.64371558 -14.29491098 473.26138336 -14.25674343 469.87863445 C-14.24169644 467.58437223 -14.22800806 465.29010066 -14.21572781 462.99582195 C-14.18266071 457.37322265 -14.13246246 451.7509712 -14.06924343 446.12863445 C-15.16623562 446.1750407 -16.26322781 446.22144695 -17.39346218 446.26925945 C-18.84786193 446.30679235 -20.30229126 446.34319088 -21.75674343 446.37863445 C-22.4779739 446.41215008 -23.19920437 446.4456657 -23.94229031 446.48019695 C-27.84616071 446.55150052 -29.65039397 446.39242692 -33.04946804 444.25168133 C-35.06924343 442.12863445 -35.06924343 442.12863445 -35.69814968 439.90988445 C-35.51947314 433.77181975 -35.51947314 433.77181975 -33.31924343 430.62863445 C-27.32035726 426.629377 -21.49009278 428.12863445 -14.06924343 428.12863445 C-14.06924343 408.98863445 -14.06924343 389.84863445 -14.06924343 370.12863445 C-19.67924343 370.12863445 -25.28924343 370.12863445 -31.06924343 370.12863445 C-35.06924343 366.12863445 -35.06924343 366.12863445 -35.60049343 363.90988445 C-35.59018093 363.15707195 -35.57986843 362.40425945 -35.56924343 361.62863445 C-35.57955593 360.87582195 -35.58986843 360.12300945 -35.60049343 359.34738445 C-35.06924343 357.12863445 -35.06924343 357.12863445 -31.06924343 353.12863445 C-25.45924343 353.12863445 -19.84924343 353.12863445 -14.06924343 353.12863445 C-14.06924343 333.98863445 -14.06924343 314.84863445 -14.06924343 295.12863445 C-19.01924343 295.12863445 -23.96924343 295.12863445 -29.06924343 295.12863445 C-34.06924343 292.12863445 -34.06924343 292.12863445 -35.06924343 290.12863445 C-35.34268093 288.10519695 -35.34268093 288.10519695 -35.44424343 285.75363445 C-35.49322781 284.98277508 -35.54221218 284.2119157 -35.59268093 283.41769695 C-35.06924343 281.12863445 -35.06924343 281.12863445 -30.06924343 277.12863445 C-24.78924343 277.12863445 -19.50924343 277.12863445 -14.06924343 277.12863445 C-14.06924343 257.98863445 -14.06924343 238.84863445 -14.06924343 219.12863445 C-19.01924343 219.12863445 -23.96924343 219.12863445 -29.06924343 219.12863445 C-34.06924343 216.12863445 -34.06924343 216.12863445 -35.06924343 214.12863445 C-35.53014878 206.98460153 -35.53014878 206.98460153 -33.75674343 203.69113445 C-28.41181988 198.74213117 -21.16342786 201.12863445 -14.06924343 201.12863445 C-14.06924343 181.98863445 -14.06924343 162.84863445 -14.06924343 143.12863445 C-19.34924343 143.12863445 -24.62924343 143.12863445 -30.06924343 143.12863445 C-35.06924343 139.12863445 -35.06924343 139.12863445 -35.69814968 136.90988445 C-35.51817455 130.72720927 -35.51817455 130.72720927 -33.19424343 127.62863445 C-26.47562799 122.88608238 -26.07466877 125.12863445 -14.06924343 125.12863445 C-14.06924343 105.98863445 -14.06924343 86.84863445 -14.06924343 67.12863445 C-19.67924343 67.12863445 -25.28924343 67.12863445 -31.06924343 67.12863445 C-35.06924343 63.12863445 -35.06924343 63.12863445 -35.60049343 60.90988445 C-35.59018093 60.15707195 -35.57986843 59.40425945 -35.56924343 58.62863445 C-35.57955593 57.87582195 -35.58986843 57.12300945 -35.60049343 56.34738445 C-34.83160609 53.13614907 -33.72183553 52.10931899 -31.06924343 50.12863445 C-28.13707443 49.63823231 -25.28157834 49.75090525 -22.31924343 49.87863445 C-21.52646999 49.89668133 -20.73369656 49.9147282 -19.91689968 49.93332195 C-17.96715995 49.98030363 -16.01804465 50.05204401 -14.06924343 50.12863445 C-14.0901907 48.82192791 -14.11113796 47.51522137 -14.13271999 46.16891766 C-14.20519896 41.31421171 -14.25107218 36.45955347 -14.28896999 31.60446453 C-14.3090674 29.50444778 -14.33635009 27.40448687 -14.37100124 25.30465984 C-14.41960113 22.28360487 -14.44223105 19.26329069 -14.45986843 16.2419157 C-14.48051357 15.30527584 -14.50115871 14.36863598 -14.52242947 13.40361309 C-14.52387263 9.19754408 -14.43454924 6.76058134 -12.29482937 3.05905437 C-8.50899438 -0.2246882 -4.88553799 0.00317689 0 0 Z M3.93075657 18.12863445 C3.93075657 28.68863445 3.93075657 39.24863445 3.93075657 50.12863445 C9.71895837 50.33836619 9.71895837 50.33836619 15.50814915 50.51657391 C16.59325779 50.5662431 16.59325779 50.5662431 17.70028782 50.6169157 C18.80787449 50.65619183 18.80787449 50.65619183 19.93783665 50.69626141 C22.44230828 51.23961792 23.36268176 52.13475277 24.93075657 54.12863445 C25.32919407 56.28488445 25.32919407 56.28488445 25.30575657 58.62863445 C25.31349094 59.40207195 25.32122532 60.17550945 25.32919407 60.97238445 C24.93075657 63.12863445 24.93075657 63.12863445 21.93075657 66.12863445 C15.99075657 66.45863445 10.05075657 66.78863445 3.93075657 67.12863445 C3.93075657 86.26863445 3.93075657 105.40863445 3.93075657 125.12863445 C9.21075657 125.45863445 14.49075657 125.78863445 19.93075657 126.12863445 C23.93075657 128.12863445 23.93075657 128.12863445 24.93075657 130.12863445 C25.39419194 135.87523309 25.39419194 135.87523309 24.93075657 138.12863445 C20.93075657 142.12863445 20.93075657 142.12863445 3.93075657 143.12863445 C3.93075657 162.26863445 3.93075657 181.40863445 3.93075657 201.12863445 C9.21075657 201.45863445 14.49075657 201.78863445 19.93075657 202.12863445 C23.93075657 204.12863445 23.93075657 204.12863445 24.93075657 206.12863445 C25.28631212 213.59530112 25.28631212 213.59530112 22.93075657 217.12863445 C16.88923358 219.14247545 10.28667915 218.73138929 3.93075657 219.12863445 C3.93075657 238.26863445 3.93075657 257.40863445 3.93075657 277.12863445 C9.54075657 277.45863445 15.15075657 277.78863445 20.93075657 278.12863445 C24.93075657 281.12863445 24.93075657 281.12863445 25.42685032 283.28488445 C25.40751438 284.05832195 25.38817844 284.83175945 25.36825657 285.62863445 C25.36696751 286.40207195 25.36567844 287.17550945 25.36435032 287.97238445 C24.83182341 290.62062639 24.04945884 291.49349482 21.93075657 293.12863445 C16.20362814 295.03767726 9.95430916 294.72706428 3.93075657 295.12863445 C3.93075657 314.26863445 3.93075657 333.40863445 3.93075657 353.12863445 C9.87075657 353.45863445 15.81075657 353.78863445 21.93075657 354.12863445 C24.93075657 357.12863445 24.93075657 357.12863445 25.32919407 359.28488445 C25.32145969 360.05832195 25.31372532 360.83175945 25.30575657 361.62863445 C25.31349094 362.40207195 25.32122532 363.17550945 25.32919407 363.97238445 C24.93075657 366.12863445 24.93075657 366.12863445 21.93075657 369.12863445 C15.99075657 369.45863445 10.05075657 369.78863445 3.93075657 370.12863445 C3.93075657 389.26863445 3.93075657 408.40863445 3.93075657 428.12863445 C9.21075657 428.45863445 14.49075657 428.78863445 19.93075657 429.12863445 C23.93075657 431.12863445 23.93075657 431.12863445 24.93075657 433.12863445 C25.39419194 438.87523309 25.39419194 438.87523309 24.93075657 441.12863445 C20.93075657 445.12863445 20.93075657 445.12863445 3.93075657 446.12863445 C3.93075657 458.00863445 3.93075657 469.88863445 3.93075657 482.12863445 C83.13075657 482.12863445 162.33075657 482.12863445 243.93075657 482.12863445 C244.42575657 435.10363445 244.42575657 435.10363445 244.93075657 387.12863445 C249.43700466 382.62238637 252.50592143 382.96447595 258.60311985 382.92331219 C259.515282 382.91327947 260.42744415 382.90324675 261.36724758 382.89291 C264.32849532 382.86145439 267.28975642 382.83672477 270.25106907 382.8122282 C272.075862 382.79383127 273.90065055 382.77499495 275.7254343 382.75570965 C282.50215656 382.68718482 289.27896282 382.62718151 296.05575657 382.56613445 C311.19450657 382.42175945 326.33325657 382.27738445 341.93075657 382.12863445 C341.93075657 335.92863445 341.93075657 289.72863445 341.93075657 242.12863445 C337.90911658 244.54161844 335.15607425 246.60333573 331.80575657 249.75363445 C328.10458947 253.17696595 324.35764681 256.46686896 320.43075657 259.62863445 C316.64615323 262.68212124 313.0086812 265.83531746 309.43075657 269.12863445 C304.98348545 273.22214537 300.38358194 277.05305944 295.68075657 280.84738445 C292.84976078 283.19582414 290.13692059 285.63773348 287.43075657 288.12863445 C282.98348545 292.22214537 278.38358194 296.05305944 273.68075657 299.84738445 C270.84976078 302.19582414 268.13692059 304.63773348 265.43075657 307.12863445 C261.73672158 310.51131506 258.01084986 313.83776347 254.18075657 317.06613445 C253.34028782 317.77640789 252.49981907 318.48668133 251.63388157 319.2184782 C246.13214516 323.10626592 239.76251723 324.90991094 233.36435032 326.79269695 C232.56723133 327.03023693 231.77011234 327.26777691 230.94883823 327.51251507 C229.27455659 328.01030744 227.59965395 328.50601545 225.92416477 328.9997282 C223.37053926 329.75296114 220.81950847 330.51453691 218.26864719 331.27707195 C216.63402969 331.76194658 214.99926879 332.2463381 213.36435032 332.73019695 C212.22974621 333.06925564 212.22974621 333.06925564 211.0722208 333.41516399 C204.03262387 335.4795066 199.10890937 336.56920641 191.93075657 334.12863445 C189.87263472 322.78544753 195.96788821 313.11421294 200.74325657 303.25363445 C201.58693002 301.46806159 202.42874345 299.68160862 203.26864719 297.89425945 C211.91962785 279.59302584 211.91962785 279.59302584 219.18075657 273.62863445 C220.4481441 272.56538098 221.71505539 271.50155963 222.98153782 270.4372282 C223.96114475 269.61907635 223.96114475 269.61907635 224.96054173 268.78439617 C228.12775978 266.1226771 231.24716682 263.40664263 234.36825657 260.69113445 C235.62597073 259.59987526 236.88378375 258.50873002 238.14169407 257.41769695 C239.40475745 256.32139181 240.66777824 255.22503759 241.93075657 254.12863445 C244.45116521 251.94064447 246.97194292 249.75308152 249.49325657 247.56613445 C250.11087864 247.03028728 250.72850071 246.49444012 251.3648386 245.94235516 C256.2256573 241.72943326 261.1144739 237.54992689 266.00644016 233.37326336 C269.4246594 230.44600522 272.78958825 227.47053764 276.11825657 224.44113445 C279.45302771 221.41150577 282.86363296 218.52255353 286.36825657 215.69113445 C291.14215957 211.83038308 295.66464084 207.7542637 300.18075657 203.59738445 C303.74259886 200.39982149 307.4564149 197.41475103 311.18075657 194.40988445 C314.01175235 192.06144477 316.72459254 189.61953543 319.43075657 187.12863445 C323.93107094 182.98886029 328.56582206 179.0719175 333.32528782 175.2341032 C336.21861366 172.8960183 339.07301725 170.51008388 341.93075657 168.12863445 C341.93075657 118.62863445 341.93075657 69.12863445 341.93075657 18.12863445 C230.39075657 18.12863445 118.85075657 18.12863445 3.93075657 18.12863445 Z M451.93075657 103.12863445 C448.46575657 106.09863445 448.46575657 106.09863445 444.93075657 109.12863445 C446.81419589 112.8955131 447.62208126 113.92285091 450.93075657 116.12863445 C453.24075657 114.14863445 455.55075657 112.16863445 457.93075657 110.12863445 C456.04731725 106.36175581 455.23943188 105.33441799 451.93075657 103.12863445 Z M421.93075657 122.12863445 C425.89075657 126.74863445 429.85075657 131.36863445 433.93075657 136.12863445 C434.92075657 135.79863445 435.91075657 135.46863445 436.93075657 135.12863445 C437.89252658 132.04659873 438.19066425 130.65870933 436.74325657 127.70675945 C432.8354907 122.61472876 432.8354907 122.61472876 427.11825657 119.94113445 C423.83646535 119.78001645 423.83646535 119.78001645 421.93075657 122.12863445 Z M388.68075657 150.65988445 C385.11891428 153.85744742 381.40509824 156.84251788 377.68075657 159.84738445 C374.84976078 162.19582414 372.13692059 164.63773348 369.43075657 167.12863445 C364.98348545 171.22214537 360.38358194 175.05305944 355.68075657 178.84738445 C352.84976078 181.19582414 350.13692059 183.63773348 347.43075657 186.12863445 C342.98348545 190.22214537 338.38358194 194.05305944 333.68075657 197.84738445 C330.84976078 200.19582414 328.13692059 202.63773348 325.43075657 205.12863445 C320.98348545 209.22214537 316.38358194 213.05305944 311.68075657 216.84738445 C308.84976078 219.19582414 306.13692059 221.63773348 303.43075657 224.12863445 C298.98348545 228.22214537 294.38358194 232.05305944 289.68075657 235.84738445 C286.84976078 238.19582414 284.13692059 240.63773348 281.43075657 243.12863445 C276.98348545 247.22214537 272.38358194 251.05305944 267.68075657 254.84738445 C264.84976078 257.19582414 262.13692059 259.63773348 259.43075657 262.12863445 C255.85283194 265.42195144 252.21535991 268.57514767 248.43075657 271.62863445 C242.00213748 276.81777878 235.77499686 282.28439416 229.93075657 288.12863445 C235.87075657 295.05863445 235.87075657 295.05863445 241.93075657 302.12863445 C246.56126485 300.27643114 249.10327158 298.41370495 252.55575657 295.06613445 C256.42648644 291.41101076 260.3393616 287.90355365 264.49325657 284.56613445 C268.25913846 281.53505878 271.87405413 278.40281869 275.43075657 275.12863445 C279.87802769 271.03512354 284.4779312 267.20420947 289.18075657 263.40988445 C292.01175235 261.06144477 294.72459254 258.61953543 297.43075657 256.12863445 C301.87802769 252.03512354 306.4779312 248.20420947 311.18075657 244.40988445 C314.01175235 242.06144477 316.72459254 239.61953543 319.43075657 237.12863445 C323.87802769 233.03512354 328.4779312 229.20420947 333.18075657 225.40988445 C336.01175235 223.06144477 338.72459254 220.61953543 341.43075657 218.12863445 C345.87802769 214.03512354 350.4779312 210.20420947 355.18075657 206.40988445 C358.01175235 204.06144477 360.72459254 201.61953543 363.43075657 199.12863445 C367.87802769 195.03512354 372.4779312 191.20420947 377.18075657 187.40988445 C380.01175235 185.06144477 382.72459254 182.61953543 385.43075657 180.12863445 C389.0086812 176.83531746 392.64615323 173.68212124 396.43075657 170.62863445 C401.22974219 166.7538472 405.79755731 162.67784067 410.33700657 158.50363445 C413.81603157 155.3180212 417.363867 152.21516927 420.93075657 149.12863445 C418.76971113 145.25966601 416.28521005 142.09159227 413.30575657 138.81613445 C412.50911594 137.93312664 411.71247532 137.05011883 410.89169407 136.1403532 C410.24458469 135.47648602 409.59747532 134.81261883 408.93075657 134.12863445 C403.47205532 134.12863445 392.60531692 147.04750504 388.68075657 150.65988445 Z M219.93075657 304.12863445 C219.27075657 305.24238445 218.61075657 306.35613445 217.93075657 307.50363445 C217.55950657 308.13011883 217.18825657 308.7566032 216.80575657 309.40207195 C215.78007309 311.10336113 215.78007309 311.10336113 215.93075657 313.12863445 C218.90075657 312.46863445 221.87075657 311.80863445 224.93075657 311.12863445 C223.31337933 307.89387997 222.45446434 306.42291424 219.93075657 304.12863445 Z M260.93075657 400.12863445 C260.93075657 422.89863445 260.93075657 445.66863445 260.93075657 469.12863445 C266.54703137 464.34682289 266.54703137 464.34682289 271.86825657 459.32394695 C272.53599094 458.65750164 273.20372532 457.99105633 273.89169407 457.3044157 C274.56458469 456.62765789 275.23747532 455.95090008 275.93075657 455.25363445 C276.60364719 454.58461102 277.27653782 453.91558758 277.96981907 453.2262907 C278.63755344 452.55726727 279.30528782 451.88824383 279.99325657 451.19894695 C280.58235813 450.60871746 281.17145969 450.01848797 281.77841282 449.41037273 C283.61781393 447.46039057 285.36688688 445.4715973 287.11459446 443.44040203 C291.17966261 438.77150538 295.52823335 434.4227485 299.92685032 430.0700407 C300.76039539 429.24028225 301.59394047 428.4105238 302.45274448 427.55562115 C305.08882004 424.93166953 307.72813195 422.31101161 310.36825657 419.69113445 C313.86977761 416.21609471 317.36804865 412.73783076 320.86435032 409.2575407 C321.67359455 408.45659481 322.48283878 407.65564892 323.31660557 406.83043194 C324.0548003 406.09554043 324.79299503 405.36064892 325.5535593 404.60348797 C326.20751179 403.9547723 326.86146427 403.30605663 327.5352335 402.63768291 C329.04391508 401.34883893 329.04391508 401.34883893 328.93075657 400.12863445 C306.49075657 400.12863445 284.05075657 400.12863445 260.93075657 400.12863445 Z M336.55442905 418.3694334 C335.93152485 418.99436184 335.30862064 419.61929028 334.66684055 420.26315594 C334.0132053 420.91503887 333.35957005 421.56692181 332.68612766 422.23855877 C330.51383559 424.40642892 328.34524595 426.57796116 326.17685032 428.7497282 C324.67626967 430.24963591 323.17554054 431.7493951 321.67466831 433.24901104 C318.52475704 436.39744488 315.3766698 439.5476886 312.22982883 442.69919109 C308.18535425 446.74936298 304.13640821 450.79503025 300.08609009 454.83935738 C296.98490612 457.93693696 293.8860967 461.03688317 290.7880125 464.13756275 C289.29552909 465.63071577 287.80229555 467.12311937 286.30831814 468.61477757 C284.22488262 470.69568858 282.1446545 472.77975244 280.06527805 474.86471844 C279.1278854 475.79907475 279.1278854 475.79907475 278.17155552 476.75230694 C275.28711688 479.07071178 275.28711688 479.07071178 273.93075657 482.12863445 C296.37075657 482.12863445 318.81075657 482.12863445 341.93075657 482.12863445 C341.93075657 459.68863445 341.93075657 437.24863445 341.93075657 414.12863445 C339.65549743 414.12863445 338.09017036 416.84135507 336.55442905 418.3694334 Z " fill="#000000" transform="translate(35.06924343109131,5.871365547180176)"/>
<path d="M0 0 C0.76028503 -0.00779995 1.52057007 -0.01559991 2.30389404 -0.02363622 C4.84762244 -0.043556 7.38985467 -0.02779286 9.93359375 -0.01205444 C11.75871656 -0.01883061 13.58383253 -0.02773374 15.40893555 -0.03860474 C20.36353305 -0.0614048 25.31761016 -0.05255878 30.2722168 -0.03670931 C35.45623176 -0.02405402 40.64020205 -0.03578939 45.82421875 -0.04364014 C54.53002933 -0.05273777 63.23562786 -0.04074575 71.94140625 -0.01693726 C82.00777174 0.01027418 92.07363091 0.00146011 102.13998413 -0.02606928 C110.78132462 -0.04875606 119.42251264 -0.05196253 128.06387329 -0.03887594 C133.22560934 -0.03107908 138.38710735 -0.03004636 143.54882812 -0.04655838 C148.40157788 -0.06099755 153.25367459 -0.05099148 158.10635376 -0.0220871 C159.88773514 -0.01547333 161.66917144 -0.01737894 163.45053101 -0.02840042 C165.88182605 -0.04205673 168.31102615 -0.02494189 170.7421875 0 C171.44792908 -0.01115361 172.15367065 -0.02230722 172.88079834 -0.03379881 C176.63080955 0.04087537 178.29873153 0.5794951 181.30863857 2.88481998 C183.44025879 5.72714357 183.99667354 6.80344541 183.99928284 10.27140808 C184.0119368 11.17281525 184.02459076 12.07422241 184.03762817 13.00294495 C184.02593597 13.97921341 184.01424377 14.95548187 184.00219727 15.96133423 C184.01293022 17.51823975 184.01293022 17.51823975 184.02388 19.1065979 C184.04077684 22.53445561 184.0213587 25.9610075 184 29.38882446 C184.00082854 31.77106332 184.00328734 34.15330212 184.00730896 36.53553772 C184.01016757 41.52644065 183.99545762 46.51689496 183.96801758 51.50772095 C183.93391691 57.90948515 183.93995894 64.31044802 183.95868015 70.71225071 C183.96924065 75.6304443 183.96032114 80.54845092 183.94529533 85.46662712 C183.94010737 87.82736595 183.94060274 90.18812426 183.94684029 92.54886055 C183.9522815 95.84563428 183.93195162 99.14125439 183.90454102 102.43789673 C183.91432983 103.90533577 183.91432983 103.90533577 183.92431641 105.40242004 C183.83130972 111.97045146 183.83130972 111.97045146 181.5877533 115.20973206 C177.26571951 117.98855424 173.15323552 117.76218943 168.09022522 117.76863098 C167.35529592 117.77089654 166.62036663 117.77316209 165.86316675 117.7754963 C163.39972867 117.78182812 160.93634571 117.78100747 158.47290039 117.78018188 C156.70704578 117.78317386 154.94119183 117.78657647 153.17533875 117.7903595 C148.37786874 117.7991991 143.58041656 117.80153758 138.7829392 117.80217528 C134.77934405 117.80312451 130.77575306 117.8068029 126.77215952 117.81034738 C117.32800329 117.81849154 107.8838566 117.82093162 98.43969727 117.82022095 C88.69330736 117.81961992 78.94697277 117.83017674 69.20059687 117.84596461 C60.8353242 117.85903304 52.47006962 117.86440515 44.10478681 117.86376554 C39.10742114 117.86351038 34.11010462 117.86637169 29.1127491 117.87694359 C24.41370791 117.88661301 19.71476301 117.8867117 15.01571846 117.87942696 C13.29076497 117.87837972 11.56580552 117.8807522 9.84086227 117.88678741 C7.48677642 117.89449069 5.13302445 117.88987369 2.77894592 117.88215637 C0.80257944 117.88297352 0.80257944 117.88297352 -1.21371365 117.88380718 C-5.57446449 117.56600877 -8.33712789 116.96837163 -11.41675568 113.78938961 C-12.78719703 111.35357284 -13.00989199 109.94078765 -13.02331543 107.16337585 C-13.03466522 106.27320267 -13.04601501 105.38302948 -13.05770874 104.46588135 C-13.05477814 103.49693939 -13.05184753 102.52799744 -13.04882812 101.5296936 C-13.06153244 99.99004692 -13.06153244 99.99004692 -13.07449341 98.41929626 C-13.09790788 95.02359657 -13.0988845 91.6283488 -13.09765625 88.23257446 C-13.10475499 85.87372149 -13.11245356 83.51487026 -13.12072754 81.15602112 C-13.13418251 76.21054281 -13.13573643 71.26522417 -13.12988281 66.31973267 C-13.12398515 59.97964325 -13.1545773 53.64031918 -13.19499969 47.30037785 C-13.22083815 42.42849087 -13.22375758 37.55678912 -13.22010803 32.68484306 C-13.22180281 30.34723423 -13.23147947 28.00961716 -13.24925232 25.67207527 C-13.27136542 22.40404021 -13.26177788 19.13756667 -13.24414062 15.86953735 C-13.25740387 14.90261963 -13.27066711 13.9357019 -13.28433228 12.93948364 C-13.27312347 12.04649063 -13.26191467 11.15349762 -13.25036621 10.23344421 C-13.25143497 9.0756299 -13.25143497 9.0756299 -13.25252533 7.89442539 C-11.38578649 1.13082569 -6.25971762 -0.09892919 0 0 Z M5.37109375 17.63491821 C5.37109375 44.69491821 5.37109375 71.75491821 5.37109375 99.63491821 C58.17109375 99.63491821 110.97109375 99.63491821 165.37109375 99.63491821 C165.37109375 72.57491821 165.37109375 45.51491821 165.37109375 17.63491821 C112.57109375 17.63491821 59.77109375 17.63491821 5.37109375 17.63491821 Z " fill="#000000" transform="translate(122.62890625,89.36508178710938)"/>
<path d="M0 0 C0.75187088 -0.00554901 1.50374176 -0.01109802 2.27839661 -0.01681519 C4.75534499 -0.02859289 7.23045589 -0.0043555 9.70727539 0.02148438 C11.43453386 0.02319626 13.16179493 0.02312901 14.88905334 0.0213623 C18.50636711 0.02301454 22.12306039 0.04169246 25.74023438 0.07324219 C30.36834581 0.11288993 34.99564378 0.11729028 39.62389278 0.10977936 C43.19022524 0.10670391 46.75637611 0.11885105 50.32266426 0.13591003 C52.02862979 0.14292352 53.73461589 0.14606658 55.44059563 0.1452179 C57.82926196 0.14702344 60.21696913 0.16846951 62.60546875 0.1953125 C63.30539948 0.1923819 64.0053302 0.18945129 64.72647095 0.18643188 C70.15269213 0.28012431 74.21816772 1.63268484 78.23071289 5.33398438 C78.70895508 5.92179687 79.18719727 6.50960937 79.67993164 7.11523438 C80.41663086 7.99695312 80.41663086 7.99695312 81.16821289 8.89648438 C83.82522765 12.7045837 83.52784344 16.6857055 83.54443359 21.12841797 C83.55100479 21.89135666 83.55757599 22.65429535 83.56434631 23.44035339 C83.58405526 25.9647939 83.59573537 28.48917504 83.60571289 31.01367188 C83.60978842 31.87625233 83.61386395 32.73883278 83.61806297 33.62755203 C83.63891159 38.19147756 83.65321958 42.75537311 83.66259766 47.31933594 C83.67367092 52.03278686 83.70808461 56.74576685 83.74776936 61.45905113 C83.77390939 65.08447143 83.78228706 68.70977893 83.78587914 72.33528519 C83.7907504 74.07282321 83.80237979 75.81035601 83.82091713 77.54780197 C83.84525793 79.9800026 83.84435351 82.41097665 83.83740234 84.84326172 C83.8502124 85.55928055 83.86302246 86.27529938 83.8762207 87.01301575 C83.83952796 90.53895108 83.42823335 92.51728143 81.55290222 95.53848267 C78.53947316 98.40200506 76.47825693 98.61523438 72.36743164 98.61523438 C69.55594351 97.42816161 67.95320802 96.48465437 66.24490356 93.94915771 C65.02957476 90.71659359 65.12847927 87.91142235 65.14038086 84.45996094 C65.14008881 83.74736618 65.13979675 83.03477142 65.13949585 82.30058289 C65.14088587 79.95221657 65.15643142 77.60417007 65.17211914 75.25585938 C65.17585044 73.62490004 65.17869686 71.99393846 65.18069458 70.36297607 C65.18832184 66.07543726 65.20796252 61.78803448 65.23010254 57.50054932 C65.25058052 53.1234318 65.25970047 48.74629226 65.26977539 44.36914062 C65.29120929 35.78444287 65.32533425 27.19985555 65.36743164 18.61523438 C64.47873383 18.62633743 63.59003601 18.63744049 62.67440796 18.64888 C54.28815936 18.74917796 45.90211297 18.825248 37.51540184 18.87429523 C33.20393608 18.90035912 28.89296702 18.93569752 24.58178711 18.99243164 C20.41907514 19.04686744 16.2568401 19.07667905 12.09379959 19.08962059 C10.50776285 19.09883987 8.92175143 19.11684353 7.33591843 19.14388466 C5.10936399 19.18033184 2.88476504 19.18517364 0.65795898 19.18286133 C-1.24066391 19.19951591 -1.24066391 19.19951591 -3.17764282 19.21650696 C-7.755148 18.41986798 -9.37508282 16.87458006 -12.63256836 13.61523438 C-13.39428711 11.55273438 -13.39428711 11.55273438 -13.32006836 9.61523438 C-13.32393555 8.97585937 -13.32780273 8.33648437 -13.33178711 7.67773438 C-11.12723624 1.17492511 -6.20768655 -0.11729252 0 0 Z " fill="#000000" transform="translate(280.632568359375,37.384765625)"/>
<path d="M0 0 C1.07672974 -0.0112793 2.15345947 -0.02255859 3.26281738 -0.03417969 C5.02716125 -0.0220343 5.02716125 -0.0220343 6.82714844 -0.00964355 C8.69107239 -0.02015747 8.69107239 -0.02015747 10.59265137 -0.03088379 C13.9978753 -0.04547416 17.40212726 -0.04205291 20.80729675 -0.02936745 C24.37154442 -0.01923659 27.9357507 -0.02863335 31.5 -0.03491211 C37.48542738 -0.04218831 43.47065729 -0.0326017 49.45605469 -0.0135498 C56.37491301 0.00821911 63.29329986 0.0011677 70.21214676 -0.02085543 C76.15368306 -0.03901038 82.09507746 -0.04156736 88.03663254 -0.03110075 C91.58476235 -0.02486625 95.13267058 -0.02402872 98.68078613 -0.0372467 C102.63600985 -0.05095221 106.59070592 -0.03195378 110.54589844 -0.00964355 C111.72212769 -0.01774048 112.89835693 -0.0258374 114.11022949 -0.03417969 C115.7253241 -0.01726074 115.7253241 -0.01726074 117.37304688 0 C118.30808044 0.0015081 119.24311401 0.0030162 120.20648193 0.00457001 C123.43490098 0.65982991 124.6172001 2.00469819 126.68652344 4.50793457 C128.11314562 7.36117894 127.99686211 9.34248006 127.68652344 12.50793457 C124.81779337 17.1183936 124.81779337 17.1183936 121.86291313 18.1358757 C119.40962135 18.55527162 117.10403618 18.64003798 114.61428833 18.64837646 C113.07925659 18.65694168 113.07925659 18.65694168 111.51321411 18.66567993 C110.39623138 18.66679779 109.27924866 18.66791565 108.12841797 18.66906738 C106.94753601 18.67403229 105.76665405 18.67899719 104.54998779 18.68411255 C101.31438193 18.69620754 98.07881218 18.70367555 94.84318781 18.70812321 C92.82026931 18.71105822 90.79735643 18.71516379 88.77444077 18.71962738 C82.44089381 18.73329354 76.10735974 18.74296494 69.77379906 18.74682927 C62.47033231 18.75131034 55.16705267 18.76886403 47.86364281 18.79782987 C42.21255586 18.81946233 36.5615215 18.82953436 30.9103936 18.83087039 C27.53770423 18.83191715 24.16519098 18.83779743 20.79254532 18.85569 C17.0293582 18.87272787 13.26662791 18.87087557 9.50341797 18.86437988 C7.83401657 18.87820206 7.83401657 18.87820206 6.13088989 18.89230347 C0.57903083 18.86225553 -3.55347409 18.72089145 -8.31347656 15.50793457 C-10.48570035 12.86348822 -10.31240977 11.47806439 -10.18847656 8.00793457 C-8.71992933 2.13374564 -5.99024598 0.00966158 0 0 Z " fill="#000000" transform="translate(149.3134765625,155.4920654296875)"/>
<path d="M0 0 C1.07398041 -0.00571014 2.14796082 -0.01142029 3.25448608 -0.01730347 C4.43790588 -0.01842133 5.62132568 -0.01953918 6.84060669 -0.02069092 C8.70409256 -0.02813828 8.70409256 -0.02813828 10.60522461 -0.03573608 C14.01850475 -0.047858 17.43172352 -0.05530629 20.84501791 -0.05974674 C22.97679122 -0.06267633 25.10855914 -0.06678092 27.24032974 -0.07125092 C33.90812336 -0.08492745 40.57590467 -0.0945934 47.24371135 -0.09845281 C54.94453756 -0.10293444 62.64518634 -0.1204864 70.34595859 -0.1494534 C76.29590974 -0.17105881 82.24581093 -0.18115647 88.1958009 -0.18249393 C91.75065814 -0.18354276 95.30534865 -0.189467 98.86016464 -0.20731354 C102.82505794 -0.22683134 106.78972893 -0.22250978 110.75466919 -0.21600342 C111.93404053 -0.2252182 113.11341187 -0.23443298 114.32852173 -0.243927 C115.94795181 -0.23557327 115.94795181 -0.23557327 117.60009766 -0.22705078 C118.53772886 -0.22851734 119.47536007 -0.2299839 120.44140434 -0.2314949 C123.39746509 0.21083505 124.76213553 1.11271469 126.92703247 3.14044189 C127.71218872 5.22637939 127.71218872 5.22637939 127.98953247 7.51544189 C128.10425903 8.26567627 128.2189856 9.01591064 128.33718872 9.78887939 C127.85060232 12.5786414 126.82400219 14.1245737 124.77678108 16.06791496 C120.58485141 18.49849252 115.3735165 17.8184149 110.67288208 17.77154541 C108.80873909 17.78227837 108.80873909 17.78227837 106.90693665 17.79322815 C103.50569692 17.80722718 100.10598046 17.79882132 96.70486522 17.77913785 C93.14329688 17.76273376 89.5817776 17.77156651 86.02018738 17.7766571 C80.04068474 17.78117555 74.06149518 17.7653226 68.08206177 17.73736572 C61.17055336 17.70529995 54.25960909 17.70533581 47.34806055 17.72258049 C40.69568369 17.73844651 34.04351352 17.73171261 27.39114571 17.71464348 C24.56144262 17.7077738 21.73190526 17.70880441 18.90220451 17.71618843 C14.9518471 17.7252751 11.00206914 17.70131354 7.05178833 17.67388916 C5.87713013 17.68041504 4.70247192 17.68694092 3.49221802 17.69366455 C2.41693344 17.68094009 1.34164886 17.66821564 0.23377991 17.65510559 C-0.69995484 17.65229867 -1.63368959 17.64949175 -2.59571934 17.64659977 C-5.85341474 16.98097886 -7.0329026 15.71890418 -9.07296753 13.14044189 C-10.16239704 9.14586702 -10.494344 7.06345703 -8.76046753 3.26544189 C-6.06528946 -0.12848604 -4.15816872 0.01320253 0 0 Z " fill="#000000" transform="translate(149.07296752929688,122.85955810546875)"/>
<path d="M0 0 C1.23197113 -0.01248528 1.23197113 -0.01248528 2.48883057 -0.02522278 C5.21354873 -0.04938717 7.93802772 -0.05810333 10.6628418 -0.06469727 C12.55372695 -0.07365978 14.44461135 -0.08278155 16.335495 -0.09205627 C20.30424729 -0.10856708 24.27291502 -0.11624999 28.24169922 -0.11914062 C33.32635831 -0.12452197 38.410222 -0.16218264 43.49465656 -0.20788479 C47.40232742 -0.23763691 51.30980651 -0.2448638 55.2175808 -0.24586678 C57.09188664 -0.25007393 58.96619282 -0.26252807 60.84038734 -0.28338432 C63.46449693 -0.31025671 66.08676034 -0.30548599 68.7109375 -0.29296875 C69.48463181 -0.30780304 70.25832611 -0.32263733 71.0554657 -0.33792114 C75.02833508 -0.28398563 76.85849236 0.15783287 80.03166199 2.62510681 C82.04956055 5.30639648 82.04956055 5.30639648 82.67456055 8.80639648 C81.87293503 13.29549938 80.62584356 14.52145341 77.04956055 17.30639648 C74.08578305 17.79618159 71.70011297 17.98237554 68.74267578 17.9375 C67.50763809 17.94823296 67.50763809 17.94823296 66.24765015 17.95918274 C63.53391553 17.97605207 60.82183689 17.95668012 58.1081543 17.93530273 C56.2191606 17.93613152 54.33016697 17.93859126 52.44117737 17.94261169 C48.48595422 17.94546837 44.53129778 17.93077982 40.57617188 17.90332031 C35.50609243 17.86921436 30.43702471 17.87526469 25.36689663 17.89398289 C21.46779443 17.90454956 17.56892778 17.89561849 13.66984749 17.88059807 C11.80034141 17.87541492 9.93081075 17.87589967 8.06130791 17.88214302 C5.44935027 17.88759218 2.83884313 17.86723167 0.22705078 17.83984375 C-0.54552567 17.84636963 -1.31810211 17.85289551 -2.11408997 17.85961914 C-5.60384796 17.7973812 -7.57952083 17.58615415 -10.40293884 15.45664978 C-12.42498288 12.64701802 -12.8798759 10.76401065 -12.95043945 7.30639648 C-9.78813059 0.68060648 -6.96024183 0.00593291 0 0 Z " fill="#000000" transform="translate(94.950439453125,452.693603515625)"/>
</svg>
