<?xml version="1.0" encoding="UTF-8"?>
<svg version="1.1" xmlns="http://www.w3.org/2000/svg" width="512" height="512">
<path d="M0 0 C0.83308341 -0.00367669 1.66616682 -0.00735338 2.52449518 -0.01114148 C5.31415236 -0.02214882 8.10377226 -0.02601708 10.89344788 -0.02983093 C12.89427813 -0.03609759 14.89510723 -0.04274457 16.89593506 -0.04974365 C23.46288751 -0.07075452 30.02984013 -0.08114018 36.59681702 -0.09111023 C38.85799738 -0.09515827 41.11917763 -0.0992752 43.38035774 -0.10346031 C53.99926941 -0.12250188 64.61817414 -0.13673763 75.23709959 -0.14507228 C87.49803071 -0.15485481 99.75878179 -0.1812052 112.01964945 -0.22157317 C121.49662491 -0.25170629 130.97354866 -0.26653832 140.45057112 -0.26985329 C146.11144571 -0.27220609 151.77212772 -0.28119721 157.43295097 -0.30631447 C162.75586135 -0.32955239 168.07845171 -0.33384562 173.40139961 -0.32355309 C175.35492643 -0.32305665 177.30846879 -0.32940878 179.26194763 -0.34310913 C181.92900467 -0.360768 184.59490557 -0.35375184 187.26196289 -0.34057617 C188.4212616 -0.35703004 188.4212616 -0.35703004 189.60398048 -0.37381631 C195.54905326 -0.30291184 199.02903834 1.60887779 203.27088928 5.64839172 C203.65946106 6.1184967 204.04803284 6.58860168 204.44837952 7.07295227 C204.90333801 7.61427795 205.35829651 8.15560364 205.82704163 8.71333313 C206.29891907 9.28962463 206.77079651 9.86591614 207.25697327 10.45967102 C208.31109618 11.71795671 209.36580367 12.97575287 210.42103577 14.23310852 C210.96018616 14.87989563 211.49933655 15.52668274 212.05482483 16.19306946 C214.70925532 19.35656881 217.42114555 22.46951091 220.13197327 25.58467102 C221.22324477 26.84237449 222.31438999 28.10018754 223.40541077 29.35810852 C224.50171591 30.62117191 225.59807013 31.88419269 226.69447327 33.14717102 C228.88246325 35.66757966 231.0700262 38.18835737 233.25697327 40.70967102 C233.79282043 41.32729309 234.3286676 41.94491516 234.88075256 42.58125305 C239.09367446 47.44207175 243.27318083 52.33088835 247.44984436 57.22285461 C250.3771025 60.64107385 253.35257008 64.0060027 256.38197327 67.33467102 C260.24463043 71.58777729 263.87501643 75.99798413 267.48353577 80.46748352 C270.23693173 83.80463834 273.12782692 86.99938154 276.06556702 90.17451477 C279.69238527 94.56670474 279.97691537 98.27348062 279.92152405 103.85322571 C279.9218161 104.62434189 279.92210815 105.39545807 279.92240906 106.18994141 C279.92101819 108.73309162 279.90546854 111.27594712 279.88978577 113.81904602 C279.88605477 115.58452698 279.88320821 117.35001001 279.88121033 119.11549377 C279.87358069 123.75813024 279.85393794 128.40064121 279.83180237 133.04322815 C279.81132953 137.78228559 279.80220553 142.52136334 279.79212952 147.26045227 C279.77069143 156.55608027 279.73656354 165.8516152 279.69447327 175.14717102 C280.36708694 175.20707718 281.03970062 175.26698334 281.73269653 175.32870483 C282.62250717 175.41196518 283.51231781 175.49522552 284.42909241 175.58100891 C285.30795609 175.66154007 286.18681976 175.74207123 287.09231567 175.82504272 C290.93750489 176.30104935 294.47485316 177.33522155 298.13197327 178.58467102 C298.89276184 178.84345032 299.65355042 179.10222961 300.43739319 179.36885071 C331.00406839 190.27280717 356.01177957 212.53337431 370.06947327 241.70967102 C373.61785154 249.34874728 376.82681863 256.90577438 378.69447327 265.14717102 C378.83965393 265.77526672 378.98483459 266.40336243 379.13441467 267.05049133 C386.48200877 300.05547362 380.36139197 333.51010612 362.69447327 362.14717102 C360.27246701 365.68901931 357.60053958 368.9894621 354.69447327 372.14717102 C358.07547707 376.28338186 361.3603786 379.96033671 365.69447327 383.14717102 C366.21396545 382.59287415 366.73345764 382.03857727 367.26869202 381.46748352 C367.96607483 380.7430304 368.66345764 380.01857727 369.38197327 379.27217102 C370.06646545 378.55287415 370.75095764 377.83357727 371.45619202 377.09248352 C374.8443124 374.14783439 377.5379439 373.16899233 382.00697327 373.08467102 C391.67356689 375.86996071 399.48436586 386.70526756 406.54994202 393.69404602 C407.15418818 394.29172035 407.75843433 394.88939468 408.38099098 395.50518036 C411.57379671 398.66560302 414.76265825 401.82995448 417.94911194 404.9967804 C420.56834405 407.59817466 423.19583494 410.19077265 425.83094788 412.77607727 C429.037277 415.92191526 432.22835178 419.08250835 435.40940285 422.25389862 C436.6142138 423.45021296 437.82410693 424.64143384 439.0393734 425.82712555 C446.94222353 433.5477526 454.15879421 441.02250332 455.32337952 452.58857727 C455.33362355 453.96241533 455.31152025 455.33687804 455.25697327 456.70967102 C455.23965149 457.4385553 455.22232971 458.16743958 455.20448303 458.91841125 C454.80991886 467.95523599 451.90969121 474.78296419 445.68666077 481.39326477 C437.99013876 488.16922238 429.16853189 490.65115336 419.07728577 490.45576477 C403.40629243 489.02619379 393.93679708 476.54206452 383.47962952 466.06513977 C382.21565078 464.8018357 380.95152372 463.53868002 379.68725586 462.27566528 C377.0541649 459.64404041 374.42287082 457.01063574 371.79286194 454.37593079 C368.41794213 450.99527897 365.03850484 447.61918407 361.65773869 444.24438 C359.05407264 441.64431908 356.45278251 439.04189169 353.85221672 436.43873024 C352.60617445 435.19202039 351.35938753 433.94605434 350.11184883 432.7008419 C348.37662847 430.96815103 346.64462854 429.23230491 344.91346741 427.49555969 C344.39663895 426.98075546 343.87981049 426.46595123 343.34732056 425.93554688 C340.06156185 422.6300505 338.51901659 420.67936776 338.19447327 416.02217102 C338.21390061 409.99969579 341.65679199 407.1848523 345.69447327 403.14717102 C346.35447327 402.15717102 347.01447327 401.16717102 347.69447327 400.14717102 C344.72447327 396.84717102 341.75447327 393.54717102 338.69447327 390.14717102 C335.48302066 391.75289732 332.70385511 393.47905164 329.77284241 395.52339172 C314.52160811 406.09981256 296.56448201 414.70740387 277.69447327 415.14717102 C277.54752014 415.7530304 277.40056702 416.35888977 277.24916077 416.98310852 C273.4199384 431.28767484 264.40986491 443.03089372 251.66712952 450.61201477 C241.17549124 456.03016699 231.72806055 458.29674105 220.03848267 458.29434204 C219.07205414 458.29801873 218.10562562 458.30169542 217.10991138 458.30548352 C213.87450276 458.31648834 210.63912629 458.3203588 207.40370178 458.32417297 C205.08235574 458.33044014 202.7610107 458.33708716 200.43966675 458.34408569 C192.81757808 458.36510184 185.19548926 458.37548716 177.57337952 458.38545227 C174.94557624 458.38950102 172.31777308 458.39361797 169.68997002 458.39780235 C158.75492553 458.41466866 147.81988311 458.42930217 136.88482761 458.43655109 C134.05029868 458.43846074 131.21576975 458.44038111 128.38124084 458.44233704 C127.32458287 458.44306265 127.32458287 458.44306265 126.24657827 458.44380292 C114.85009012 458.45209285 103.45370728 458.47741389 92.05726505 458.50991771 C80.33538195 458.54307491 68.61355221 458.5610077 56.89162201 458.56419533 C50.31889836 458.56654074 43.74634123 458.57543481 37.17366219 458.60065651 C30.98398459 458.62402478 24.79458211 458.62813518 18.60487175 458.61789513 C16.34228981 458.61740176 14.07969391 458.62366303 11.81715393 458.63745117 C-8.59357163 458.75480201 -25.44747515 456.6636203 -41.05552673 442.08467102 C-53.74052314 428.72143059 -57.77626246 414.29755406 -57.69320679 396.09300232 C-57.69738655 394.59134235 -57.70286758 393.08968554 -57.7095266 391.58803451 C-57.72391572 387.48774873 -57.71975707 383.38766507 -57.71235979 379.28736854 C-57.70761415 374.85507838 -57.72015027 370.42283107 -57.7303772 365.99055481 C-57.74754328 357.31747898 -57.74840975 348.64447568 -57.74316429 339.97138728 C-57.73911726 332.91940794 -57.74057249 325.86744997 -57.74591255 318.81547165 C-57.74666097 317.81048394 -57.7474094 316.80549624 -57.7481805 315.77005436 C-57.74971203 313.72819774 -57.75125038 311.68634112 -57.75279547 309.64448451 C-57.76651259 290.51108072 -57.76108836 271.37771786 -57.74961025 252.24431501 C-57.73967882 234.75533539 -57.7526184 217.26646157 -57.77654444 199.77749826 C-57.8009501 181.80196898 -57.8105397 163.82648896 -57.80389172 145.85094345 C-57.80040275 135.76618426 -57.80261031 125.68150643 -57.82014275 115.5967598 C-57.83488305 107.01187268 -57.83547627 98.42712421 -57.81807183 89.84223975 C-57.80957451 85.46589011 -57.80738115 81.08978796 -57.82272339 76.71345139 C-57.83661843 72.70009799 -57.83174607 68.687203 -57.81248415 64.67387579 C-57.80873852 63.22916586 -57.81160429 61.78441877 -57.8220958 60.33974208 C-57.93695956 43.29894925 -53.08450937 28.58460835 -40.99302673 16.27217102 C-29.48346194 5.37414986 -15.8270599 -0.00376459 0 0 Z M-27.30552673 36.14717102 C-35.66650158 46.96148355 -35.45486265 58.90489657 -35.4392395 72.01210022 C-35.44110965 73.42113469 -35.44341116 74.83016865 -35.44610482 76.23920178 C-35.4522041 80.09730383 -35.45209144 83.95538415 -35.45091045 87.81348991 C-35.45070597 91.97994697 -35.45622972 96.14639713 -35.46096802 100.31285095 C-35.46926488 108.47062429 -35.47202242 116.62839039 -35.4725804 124.78616759 C-35.47305602 131.41917045 -35.47511307 138.05217093 -35.47828102 144.68517303 C-35.487085 163.50255581 -35.4917008 182.31993289 -35.49095055 201.13731775 C-35.49091059 202.15119433 -35.49087063 203.16507091 -35.49082947 204.20967102 C-35.49078859 205.22478954 -35.49074771 206.23990805 -35.49070559 207.28578773 C-35.4902992 223.73449202 -35.49986759 240.18317341 -35.51396783 256.63187107 C-35.52834097 273.53264938 -35.5352375 290.43341653 -35.53437406 307.3342011 C-35.53404241 316.81811951 -35.53677536 326.30201392 -35.54755211 335.78592682 C-35.55666944 343.86107142 -35.55882223 351.93618114 -35.55204269 360.01132867 C-35.5487837 364.12823703 -35.54869829 368.24507849 -35.55739594 372.36198044 C-35.56528941 376.13719274 -35.56380063 379.91228542 -35.5551118 383.6874949 C-35.55286372 385.68642915 -35.56038305 387.6853672 -35.56835145 389.68428683 C-35.51569615 403.54175622 -34.28234501 414.93237385 -24.61802673 425.39717102 C-18.49560274 431.21753994 -10.73725464 435.25965614 -2.18959713 435.2813921 C-1.37330206 435.28584994 -0.55700699 435.29030779 0.2840243 435.29490072 C1.17535152 435.29471635 2.06667874 435.29453199 2.98501587 435.29434204 C4.41182746 435.29985707 4.41182746 435.29985707 5.86746353 435.30548352 C9.06314213 435.31651943 12.25878822 435.32036408 15.45448303 435.32417297 C17.7426158 435.33043775 20.03074754 435.33708457 22.31887817 435.34408569 C29.84120474 435.36512879 37.36353152 435.3754891 44.88587952 435.38545227 C47.47600248 435.38949989 50.06612534 435.39361682 52.65624809 435.39780235 C63.43166272 435.41467211 74.20707366 435.42930614 84.98249912 435.43655109 C87.77752242 435.43846087 90.57254571 435.44038122 93.36756897 435.44233704 C94.06222541 435.44282078 94.75688184 435.44330452 95.47258847 435.44380292 C106.71671002 435.45209697 117.96072498 435.47742372 129.20480002 435.50991771 C140.75936354 435.54303558 152.31385695 435.56067175 163.86846966 435.56419533 C170.35167018 435.56654459 176.83470223 435.57548913 183.31785774 435.60065651 C189.42049536 435.62396363 195.5228539 435.62815961 201.62552452 435.61789513 C203.86075901 435.61740029 206.09600737 435.62370536 208.33119965 435.63745117 C222.71900315 435.72095411 235.68284346 435.7269722 246.69447327 425.14717102 C250.64915632 421.08533566 250.64915632 421.08533566 252.69447327 416.14717102 C251.44794983 415.98861633 250.20142639 415.83006165 248.91712952 415.66670227 C230.72246606 413.22959581 212.74092875 409.27931865 197.41860867 398.55413055 C193.98881373 396.78271248 191.57140625 396.77085636 187.71768188 396.76863098 C187.02752281 396.76410085 186.33736373 396.75957072 185.62629074 396.75490332 C183.32013018 396.74330188 181.01455217 396.75291683 178.70838928 396.7624054 C177.05237962 396.75829923 175.39637285 396.75283809 173.7403717 396.74612427 C170.17723603 396.73440424 166.61425524 396.73191315 163.05110359 396.73648071 C157.41594667 396.74329067 151.78099352 396.72742192 146.14587402 396.70808411 C134.18291808 396.67022586 122.21997993 396.65742848 110.25697327 396.64717102 C97.34533675 396.63609785 84.43379402 396.6207518 71.52222198 396.57645845 C65.92151795 396.55810322 60.32104681 396.55420951 54.72031987 396.56139374 C51.23466271 396.56291612 47.74912196 396.5521284 44.2634964 396.53801537 C42.64862189 396.53401447 41.03372524 396.53513475 39.41885948 396.5417881 C37.21170495 396.55018239 35.00535457 396.54016559 32.79824829 396.52571106 C31.56400903 396.52499855 30.32976976 396.52428604 29.05812931 396.52355194 C25.29412488 396.10237349 22.90215719 395.13786436 19.69447327 393.14717102 C17.27261762 389.51438755 17.4309469 387.78748552 17.40394592 383.4601593 C17.3972287 382.78500275 17.39051147 382.10984619 17.3835907 381.41423035 C17.36459058 379.18190656 17.36068546 376.94988314 17.35853577 374.71748352 C17.35210888 373.16433081 17.3453806 371.61117933 17.33836365 370.05802917 C17.32638562 366.801419 17.32268332 363.54491495 17.3238678 360.2882843 C17.32407094 356.11957211 17.29677664 351.95154201 17.26232338 347.78299141 C17.24006112 344.57445667 17.23603005 341.36608621 17.23708725 338.15748215 C17.23472997 336.62091091 17.22589917 335.08433522 17.21042252 333.54784012 C17.19077614 331.39573493 17.19659358 329.24510183 17.20863342 327.0929718 C17.20578339 325.86958099 17.20293335 324.64619019 17.19999695 323.38572693 C17.79050271 319.51822944 18.93216725 317.87266453 21.69447327 315.14717102 C24.57687817 314.18636938 26.42417928 314.01182975 29.42108154 313.98895264 C30.87870911 313.97426941 30.87870911 313.97426941 32.36578369 313.95928955 C33.43033279 313.95353409 34.4948819 313.94777863 35.59169006 313.94184875 C36.71378876 313.93194916 37.83588745 313.92204956 38.99198914 313.91184998 C42.7092018 313.88020609 46.42642726 313.85546603 50.14369202 313.83076477 C52.71773617 313.81019775 55.29177693 313.78920134 57.86581421 313.76779175 C63.95369685 313.71819507 70.04159765 313.67293647 76.12952882 313.62976938 C83.06057372 313.58038279 89.99157138 313.52546994 96.92257059 313.47008979 C111.1798271 313.35629528 125.43712973 313.24945072 139.69447327 313.14717102 C139.68923645 312.35133606 139.68399963 311.5555011 139.67860413 310.73554993 C139.65763814 307.08109853 139.6447512 303.42665986 139.63197327 299.77217102 C139.62359436 298.52049133 139.61521545 297.26881165 139.60658264 295.97920227 C139.58822636 288.96710092 139.79405647 282.10484488 140.69447327 275.14717102 C140.09517376 275.14386087 139.49587425 275.14055073 138.87841415 275.13714027 C124.2978631 275.05592902 109.71740882 274.9638427 95.13700485 274.85964394 C88.08603333 274.80951662 81.03507344 274.76307375 73.98402405 274.72529602 C67.18236109 274.68884411 60.38083069 274.64213601 53.57927704 274.58910751 C50.98131268 274.57054144 48.38332121 274.55544172 45.78531647 274.54382706 C42.15301508 274.52700271 38.5210045 274.49797629 34.8888092 274.46601868 C33.8091539 274.46385849 32.7294986 274.4616983 31.61712646 274.45947266 C30.62717178 274.44830917 29.6372171 274.43714569 28.61726379 274.42564392 C27.75815273 274.42011316 26.89904167 274.41458241 26.01389694 274.40888405 C23.44006464 274.11846473 21.86788603 273.54653522 19.69447327 272.14717102 C16.87450916 267.91722486 16.90216138 264.11496654 17.69447327 259.14717102 C20.22123365 255.80092078 21.73380869 254.46739255 25.69447327 253.14717102 C27.34367446 253.04593044 28.99660249 253.00093796 30.64886475 252.98895264 C32.1822197 252.97426941 32.1822197 252.97426941 33.74655151 252.95928955 C34.86720505 252.95353409 35.98785858 252.94777863 37.14247131 252.94184875 C38.91340149 252.92699936 38.91340149 252.92699936 40.72010803 252.91184998 C43.95741771 252.88565868 47.19472218 252.86379805 50.43207526 252.84384799 C53.81537004 252.82197949 57.19862003 252.79459503 60.58187866 252.76779175 C66.98850273 252.71787654 73.39515167 252.67293337 79.80182439 252.62976938 C87.09561784 252.58038699 94.38936634 252.52547258 101.68311632 252.47008979 C116.68686007 252.35628774 131.69064617 252.24944483 146.69447327 252.14717102 C146.9409259 251.61349915 147.18737854 251.07982727 147.44129944 250.52998352 C148.58274659 248.06648217 149.73230339 245.60684509 150.88197327 243.14717102 C151.26933655 242.30799133 151.65669983 241.46881165 152.05580139 240.60420227 C154.59141199 235.19769372 157.40082137 230.12896085 160.69447327 225.14717102 C159.99817464 225.14478267 159.30187601 225.14239431 158.58447742 225.13993359 C141.6418587 225.08079715 124.69940063 225.00525587 107.75693989 224.91145611 C99.5636861 224.86649081 91.37047585 224.82707786 83.17713928 224.80073547 C76.03580977 224.7777613 68.89461796 224.74436987 61.75339764 224.69846946 C57.97216732 224.67452928 54.19107344 224.65580577 50.40976906 224.64955711 C46.84988924 224.64350977 43.29035856 224.62352307 39.73060799 224.59289551 C37.80288377 224.57992365 35.875078 224.58168618 33.9473114 224.58389282 C32.79611313 224.57135468 31.64491486 224.55881653 30.45883179 224.54589844 C29.46052999 224.54128947 28.46222818 224.53668051 27.43367481 224.53193188 C24.18567334 224.07570264 22.32718263 223.07989296 19.69447327 221.14717102 C17.01541597 217.12858507 16.99836633 213.87075381 17.69447327 209.14717102 C19.48840995 206.27687233 20.67710603 204.65585464 23.69447327 203.14717102 C25.74114153 203.06243407 27.79067724 203.04455296 29.83906555 203.0562439 C31.8069957 203.06323807 31.8069957 203.06323807 33.81468201 203.07037354 C35.27754218 203.08041902 36.74040229 203.09047491 38.20326233 203.10054016 C39.73747015 203.10732811 41.27168061 203.11353991 42.80589294 203.11921692 C45.26120318 203.12846743 47.71650443 203.1382152 50.1718049 203.1497947 C56.27393156 203.17856326 62.37591202 203.19014347 68.47810364 203.19122314 C69.80679706 203.19149579 69.80679706 203.19149579 71.16233277 203.19177395 C74.81911886 203.19222403 78.47590481 203.19214144 82.13269091 203.19193852 C92.5031579 203.19220274 102.8730212 203.20874349 113.24330139 203.27388 C121.47953933 203.32549697 129.71499469 203.34143056 137.95136809 203.31641859 C142.30635224 203.30452493 146.65966712 203.31013266 151.01442719 203.35910225 C155.12251753 203.404902 159.22796821 203.4029562 163.33612442 203.3663559 C164.83319009 203.36113941 166.33043507 203.37259013 167.82719803 203.40314293 C180.05510359 203.63713894 186.56749026 199.63784503 195.69447327 192.14717102 C198.43791077 190.38544781 201.23186736 188.82132011 204.13197327 187.33467102 C204.83878235 186.96777161 205.54559143 186.60087219 206.27381897 186.22285461 C222.21152032 178.18192388 239.09449665 175.49383457 256.69447327 173.14717102 C256.69447327 152.68717102 256.69447327 132.22717102 256.69447327 111.14717102 C251.84373108 111.10978821 246.99298889 111.0724054 241.99525452 111.03388977 C238.91904735 111.00360749 235.84289788 110.97245808 232.76673889 110.93818665 C227.88599065 110.88389285 223.00535653 110.83278182 218.12440491 110.80073547 C214.18847468 110.77469263 210.25292832 110.73428373 206.31723595 110.68398476 C204.81702137 110.66732259 203.3167404 110.65580424 201.8164463 110.64955711 C199.7119858 110.63990853 197.60850588 110.61184276 195.50428772 110.57954407 C194.30737808 110.56844101 193.11046844 110.55733795 191.87728882 110.54589844 C188.36635606 110.10606612 186.5024699 109.26713162 183.69447327 107.14717102 C181.23674752 103.46058241 181.38797233 100.63843576 181.37562561 96.37104797 C181.36055717 95.18533203 181.36055717 95.18533203 181.34518433 93.97566223 C181.31428796 91.36226632 181.29729938 88.74897316 181.28041077 86.13545227 C181.2617043 84.32369092 181.24213128 82.51193832 181.22172546 80.70019531 C181.17034316 75.93106748 181.13075011 71.16191139 181.09358215 66.39265442 C181.0535807 61.52624993 181.00247078 56.65996364 180.95228577 51.7936554 C180.85545429 42.24491023 180.77107264 32.69609841 180.69447327 23.14717102 C156.50271799 23.05363244 132.31098992 22.98314511 108.11909008 22.93992233 C96.88577406 22.91931772 85.65257057 22.89123725 74.41932678 22.84541321 C64.62575351 22.80548117 54.83226175 22.77972294 45.03860933 22.77081704 C39.85535069 22.7656131 34.67232521 22.75342566 29.48914146 22.72425079 C24.60458388 22.69698111 19.72035418 22.68874931 14.83572769 22.6947403 C13.04877881 22.69364521 11.26181829 22.68576045 9.47493553 22.67034912 C-5.73144654 22.54569721 -16.57069874 24.3853649 -27.30552673 36.14717102 Z M203.69447327 43.14717102 C203.69447327 57.99717102 203.69447327 72.84717102 203.69447327 88.14717102 C216.56447327 88.14717102 229.43447327 88.14717102 242.69447327 88.14717102 C238.86932625 83.046975 235.23366723 78.39365706 230.88197327 73.83467102 C226.34376506 69.00430951 222.08503199 64.03148636 217.93275452 58.86201477 C213.44220529 53.41536257 208.68577256 48.13847032 203.69447327 43.14717102 Z M183.69447327 232.14717102 C167.24094394 251.89793539 159.6617429 278.76853237 161.69447327 304.14717102 C164.69488713 328.92943553 175.01651282 349.7170614 192.69447327 367.14717102 C193.43310608 367.89611633 194.17173889 368.64506165 194.93275452 369.41670227 C212.71279609 386.39312615 238.38003605 394.63285513 262.62806702 394.29560852 C290.53074787 392.9449055 314.76812193 381.29832947 334.01087952 361.10810852 C352.30904189 340.91886968 360.07903442 314.67786793 358.88539124 287.7936554 C357.88900289 273.9818272 353.99160462 261.40875509 347.69447327 249.14717102 C347.15951233 248.07982727 346.62455139 247.01248352 346.07337952 245.91279602 C341.72168132 237.8564147 336.0340468 231.64384769 329.69447327 225.14717102 C329.03705139 224.41627258 328.37962952 223.68537415 327.70228577 222.93232727 C312.05991117 205.9808269 287.35760914 197.11862554 264.79212952 195.94404602 C232.44650882 195.31411775 205.45769651 208.33524929 183.69447327 232.14717102 Z M39.69447327 336.14717102 C39.69447327 348.68717102 39.69447327 361.22717102 39.69447327 374.14717102 C81.93447327 374.14717102 124.17447327 374.14717102 167.69447327 374.14717102 C165.71447327 371.50717102 163.73447327 368.86717102 161.69447327 366.14717102 C160.16642248 363.80726246 158.68956616 361.47941349 157.25697327 359.08467102 C156.74167053 358.2541925 156.74167053 358.2541925 156.21595764 357.40693665 C152.08716407 350.54552381 149.13270916 343.51481937 145.69447327 336.14717102 C110.71447327 336.14717102 75.73447327 336.14717102 39.69447327 336.14717102 Z M378.27406311 403.3405304 C377.4728302 404.15747375 377.4728302 404.15747375 376.65541077 404.99092102 C376.07533264 405.57744446 375.49525452 406.1639679 374.89759827 406.76826477 C374.29431702 407.38830383 373.69103577 408.0083429 373.06947327 408.64717102 C372.45845764 409.26721008 371.84744202 409.88724915 371.21791077 410.52607727 C369.70559607 412.06202188 368.19945212 413.60403777 366.69447327 415.14717102 C371.7458554 421.24823161 377.23045238 426.8282249 382.83509827 432.42060852 C383.80836825 433.39455342 384.78148986 434.36864662 385.75447083 435.34288025 C387.78005388 437.36992794 389.80741043 439.39517992 391.83607483 441.41914368 C394.4376618 444.01499577 397.03468175 446.61536368 399.63042068 449.217062 C401.63257172 451.22281961 403.63708959 453.22619814 405.64234161 455.22885513 C406.60156925 456.18741574 407.56005475 457.14671961 408.51778412 458.10677719 C409.85063136 459.44215662 411.18701766 460.7740009 412.52357483 462.10566711 C413.28269165 462.86398834 414.04180847 463.62230957 414.82392883 464.40361023 C417.16510504 466.58585352 418.24606783 467.09621586 421.44447327 467.45967102 C425.50349211 467.06938075 427.5274901 465.65129724 430.69447327 463.14717102 C432.3479192 459.84027915 432.44497389 456.695613 431.69447327 453.14717102 C430.48408975 451.25524372 430.48408975 451.25524372 428.78944397 449.51045227 C428.15100555 448.81564758 427.51256714 448.1208429 426.8547821 447.40498352 C422.84067015 443.20969811 418.77810441 439.06791719 414.67494202 434.95967102 C413.72559659 434.00710479 412.77632321 433.05446675 411.82711792 432.10176086 C409.854729 430.12343489 407.88033638 428.14713435 405.90467834 426.17207336 C403.3697647 423.63726235 400.84186061 421.09557866 398.31556225 418.55218506 C396.36563662 416.59117949 394.41122222 414.6346966 392.45548439 412.67948914 C391.06645223 411.28870209 389.68196937 409.8933763 388.29754639 408.4980011 C387.45939896 407.6629303 386.62125153 406.8278595 385.75770569 405.96748352 C385.01936996 405.22772278 384.28103424 404.48796204 383.52032471 403.7257843 C381.33751902 401.83855187 380.54018273 401.43664715 378.27406311 403.3405304 Z " fill="#32CBCB" transform="translate(57.30552673339844,10.852828979492188)"/>
<path d="M0 0 C0.83308341 -0.00367669 1.66616682 -0.00735338 2.52449518 -0.01114148 C5.31415236 -0.02214882 8.10377226 -0.02601708 10.89344788 -0.02983093 C12.89427813 -0.03609759 14.89510723 -0.04274457 16.89593506 -0.04974365 C23.46288751 -0.07075452 30.02984013 -0.08114018 36.59681702 -0.09111023 C38.85799738 -0.09515827 41.11917763 -0.0992752 43.38035774 -0.10346031 C53.99926941 -0.12250188 64.61817414 -0.13673763 75.23709959 -0.14507228 C87.49803071 -0.15485481 99.75878179 -0.1812052 112.01964945 -0.22157317 C121.49662491 -0.25170629 130.97354866 -0.26653832 140.45057112 -0.26985329 C146.11144571 -0.27220609 151.77212772 -0.28119721 157.43295097 -0.30631447 C162.75586135 -0.32955239 168.07845171 -0.33384562 173.40139961 -0.32355309 C175.35492643 -0.32305665 177.30846879 -0.32940878 179.26194763 -0.34310913 C181.92900467 -0.360768 184.59490557 -0.35375184 187.26196289 -0.34057617 C188.4212616 -0.35703004 188.4212616 -0.35703004 189.60398048 -0.37381631 C195.54905326 -0.30291184 199.02903834 1.60887779 203.27088928 5.64839172 C203.65946106 6.1184967 204.04803284 6.58860168 204.44837952 7.07295227 C204.90333801 7.61427795 205.35829651 8.15560364 205.82704163 8.71333313 C206.29891907 9.28962463 206.77079651 9.86591614 207.25697327 10.45967102 C208.31109618 11.71795671 209.36580367 12.97575287 210.42103577 14.23310852 C210.96018616 14.87989563 211.49933655 15.52668274 212.05482483 16.19306946 C214.70925532 19.35656881 217.42114555 22.46951091 220.13197327 25.58467102 C221.22324477 26.84237449 222.31438999 28.10018754 223.40541077 29.35810852 C224.50171591 30.62117191 225.59807013 31.88419269 226.69447327 33.14717102 C228.88246325 35.66757966 231.0700262 38.18835737 233.25697327 40.70967102 C233.79282043 41.32729309 234.3286676 41.94491516 234.88075256 42.58125305 C239.09367446 47.44207175 243.27318083 52.33088835 247.44984436 57.22285461 C250.3771025 60.64107385 253.35257008 64.0060027 256.38197327 67.33467102 C260.24463043 71.58777729 263.87501643 75.99798413 267.48353577 80.46748352 C270.23693173 83.80463834 273.12782692 86.99938154 276.06556702 90.17451477 C279.69238527 94.56670474 279.97691537 98.27348062 279.92152405 103.85322571 C279.9218161 104.62434189 279.92210815 105.39545807 279.92240906 106.18994141 C279.92101819 108.73309162 279.90546854 111.27594712 279.88978577 113.81904602 C279.88605477 115.58452698 279.88320821 117.35001001 279.88121033 119.11549377 C279.87358069 123.75813024 279.85393794 128.40064121 279.83180237 133.04322815 C279.81132953 137.78228559 279.80220553 142.52136334 279.79212952 147.26045227 C279.77069141 156.55608914 279.73551471 165.8516 279.69447327 175.14717102 C272.10447327 174.81717102 264.51447327 174.48717102 256.69447327 174.14717102 C256.69447327 153.35717102 256.69447327 132.56717102 256.69447327 111.14717102 C251.84373108 111.18197571 246.99298889 111.2167804 241.99525452 111.25263977 C238.91907058 111.26797149 235.84293386 111.28241353 232.76673889 111.2936554 C227.88586116 111.31157703 223.00515255 111.33276042 218.12440491 111.37348938 C214.18866309 111.40612626 210.25310267 111.42403312 206.31723595 111.43180275 C204.81694369 111.43733852 203.31666117 111.44814863 201.8164463 111.46436119 C199.71217655 111.48619374 197.60865283 111.48913562 195.50428772 111.48774719 C193.70892326 111.49773994 193.70892326 111.49773994 191.87728882 111.50793457 C187.56559436 111.01921564 185.11917367 109.56735104 182.07439137 106.53222942 C180.12985532 103.17128211 180.29911903 100.03114802 180.35389709 96.25752258 C180.35345901 95.46689926 180.35302094 94.67627594 180.35256958 93.86169434 C180.35465637 91.25347533 180.37798188 88.64590247 180.40150452 86.03779602 C180.40710087 84.22747651 180.41137078 82.41715246 180.41436768 80.60682678 C180.42581336 75.84575319 180.45527819 71.08495483 180.48847961 66.32398987 C180.51918643 61.46430688 180.53287432 56.60457935 180.54798889 51.74482727 C180.58014813 42.21215436 180.63134119 32.67968559 180.69447327 23.14717102 C156.502588 23.18437588 132.31085058 23.24429296 108.11909008 23.33107376 C96.88583329 23.37084316 85.65264633 23.40324635 74.41932678 23.41816711 C64.62567415 23.43119447 54.83217533 23.45818693 45.03860933 23.50178409 C39.85540806 23.52437438 34.67239633 23.54008315 29.48914146 23.53905487 C24.60449455 23.53830683 19.72026625 23.55631555 14.83572769 23.58833885 C13.04881641 23.59681557 11.26185805 23.59860301 9.47493553 23.59297371 C-4.25167546 23.55551105 -14.85205407 24.70501671 -25.14146423 34.73310852 C-34.77068478 45.47473 -34.6072542 58.70961235 -34.55949402 72.49311829 C-34.56180347 73.90560599 -34.56498322 75.31809249 -34.56894851 76.73057652 C-34.57723869 80.57966846 -34.57319776 84.42866026 -34.56697607 88.2777524 C-34.56242875 92.44141575 -34.5694466 96.60506254 -34.57493591 100.76872253 C-34.58380731 108.91258972 -34.58191797 117.05641993 -34.57611063 125.20028853 C-34.57158526 131.8217561 -34.57098502 138.44321334 -34.57315826 145.06468201 C-34.57346473 146.008765 -34.5737712 146.95284799 -34.57408695 147.92553955 C-34.57472643 149.84370637 -34.57537486 151.76187319 -34.57603213 153.68004 C-34.58172883 171.64693159 -34.57518791 189.61380274 -34.5644314 207.58069098 C-34.55549649 222.98144196 -34.55704872 238.38216278 -34.56626892 253.78291321 C-34.57698323 271.68757466 -34.58117956 289.59221822 -34.57504439 307.49688244 C-34.57440733 309.4078083 -34.57377858 311.31873417 -34.57315826 313.22966003 C-34.57284971 314.16975735 -34.57254116 315.10985466 -34.57222326 316.07843977 C-34.5704998 322.68836019 -34.57340388 329.29826921 -34.57811737 335.90818787 C-34.5837391 343.96860018 -34.58218262 352.02897357 -34.57155588 360.08938146 C-34.56631655 364.1982139 -34.56421265 368.30698155 -34.57085419 372.41581345 C-34.57685193 376.1834688 -34.57347605 379.95099981 -34.56289908 383.71864402 C-34.5596376 385.71340794 -34.56610167 387.70818061 -34.57301354 389.70293522 C-34.51509948 403.11477704 -33.44422374 414.66914836 -24.11802673 424.89717102 C-18.19631151 430.48124458 -10.38483746 434.26055231 -2.18959713 434.2813921 C-1.37330206 434.28584994 -0.55700699 434.29030779 0.2840243 434.29490072 C1.17535152 434.29471635 2.06667874 434.29453199 2.98501587 434.29434204 C4.41182746 434.29985707 4.41182746 434.29985707 5.86746353 434.30548352 C9.06314213 434.31651943 12.25878822 434.32036408 15.45448303 434.32417297 C17.7426158 434.33043775 20.03074754 434.33708457 22.31887817 434.34408569 C29.84120474 434.36512879 37.36353152 434.3754891 44.88587952 434.38545227 C47.47600248 434.38949989 50.06612534 434.39361682 52.65624809 434.39780235 C63.43166272 434.41467211 74.20707366 434.42930614 84.98249912 434.43655109 C87.77752242 434.43846087 90.57254571 434.44038122 93.36756897 434.44233704 C94.06222541 434.44282078 94.75688184 434.44330452 95.47258847 434.44380292 C106.71671002 434.45209697 117.96072498 434.47742372 129.20480002 434.50991771 C140.75936354 434.54303558 152.31385695 434.56067175 163.86846966 434.56419533 C170.35167018 434.56654459 176.83470223 434.57548913 183.31785774 434.60065651 C189.42049536 434.62396363 195.5228539 434.62815961 201.62552452 434.61789513 C203.86075901 434.61740029 206.09600737 434.62370536 208.33119965 434.63745117 C222.04903135 434.71706577 233.70785994 434.68832397 244.96864319 425.85908508 C246.80540094 424.0371378 247.84060078 422.24406164 249.12025452 420.00654602 C251.14622186 417.2460823 252.17035869 416.28471202 255.51893616 415.40596008 C258.89204511 415.13572386 262.18627669 415.08989343 265.56947327 415.14717102 C267.31744202 415.12976868 267.31744202 415.12976868 269.10072327 415.11201477 C271.96709552 415.08851992 274.82850907 415.10136649 277.69447327 415.14717102 C273.4484978 430.29298828 265.44076122 442.41757565 251.66712952 450.61201477 C241.17549124 456.03016699 231.72806055 458.29674105 220.03848267 458.29434204 C219.07205414 458.29801873 218.10562562 458.30169542 217.10991138 458.30548352 C213.87450276 458.31648834 210.63912629 458.3203588 207.40370178 458.32417297 C205.08235574 458.33044014 202.7610107 458.33708716 200.43966675 458.34408569 C192.81757808 458.36510184 185.19548926 458.37548716 177.57337952 458.38545227 C174.94557624 458.38950102 172.31777308 458.39361797 169.68997002 458.39780235 C158.75492553 458.41466866 147.81988311 458.42930217 136.88482761 458.43655109 C134.05029868 458.43846074 131.21576975 458.44038111 128.38124084 458.44233704 C127.32458287 458.44306265 127.32458287 458.44306265 126.24657827 458.44380292 C114.85009012 458.45209285 103.45370728 458.47741389 92.05726505 458.50991771 C80.33538195 458.54307491 68.61355221 458.5610077 56.89162201 458.56419533 C50.31889836 458.56654074 43.74634123 458.57543481 37.17366219 458.60065651 C30.98398459 458.62402478 24.79458211 458.62813518 18.60487175 458.61789513 C16.34228981 458.61740176 14.07969391 458.62366303 11.81715393 458.63745117 C-8.59357163 458.75480201 -25.44747515 456.6636203 -41.05552673 442.08467102 C-53.74052314 428.72143059 -57.77626246 414.29755406 -57.69320679 396.09300232 C-57.69738655 394.59134235 -57.70286758 393.08968554 -57.7095266 391.58803451 C-57.72391572 387.48774873 -57.71975707 383.38766507 -57.71235979 379.28736854 C-57.70761415 374.85507838 -57.72015027 370.42283107 -57.7303772 365.99055481 C-57.74754328 357.31747898 -57.74840975 348.64447568 -57.74316429 339.97138728 C-57.73911726 332.91940794 -57.74057249 325.86744997 -57.74591255 318.81547165 C-57.74666097 317.81048394 -57.7474094 316.80549624 -57.7481805 315.77005436 C-57.74971203 313.72819774 -57.75125038 311.68634112 -57.75279547 309.64448451 C-57.76651259 290.51108072 -57.76108836 271.37771786 -57.74961025 252.24431501 C-57.73967882 234.75533539 -57.7526184 217.26646157 -57.77654444 199.77749826 C-57.8009501 181.80196898 -57.8105397 163.82648896 -57.80389172 145.85094345 C-57.80040275 135.76618426 -57.80261031 125.68150643 -57.82014275 115.5967598 C-57.83488305 107.01187268 -57.83547627 98.42712421 -57.81807183 89.84223975 C-57.80957451 85.46589011 -57.80738115 81.08978796 -57.82272339 76.71345139 C-57.83661843 72.70009799 -57.83174607 68.687203 -57.81248415 64.67387579 C-57.80873852 63.22916586 -57.81160429 61.78441877 -57.8220958 60.33974208 C-57.93695956 43.29894925 -53.08450937 28.58460835 -40.99302673 16.27217102 C-29.48346194 5.37414986 -15.8270599 -0.00376459 0 0 Z M203.69447327 43.14717102 C203.69447327 57.99717102 203.69447327 72.84717102 203.69447327 88.14717102 C216.56447327 88.14717102 229.43447327 88.14717102 242.69447327 88.14717102 C238.86932625 83.046975 235.23366723 78.39365706 230.88197327 73.83467102 C226.34376506 69.00430951 222.08503199 64.03148636 217.93275452 58.86201477 C213.44220529 53.41536257 208.68577256 48.13847032 203.69447327 43.14717102 Z " fill="#000000" transform="translate(57.30552673339844,10.852828979492188)"/>
<path d="M0 0 C1.47024879 -0.002062 1.47024879 -0.002062 2.97019958 -0.00416565 C4.58104935 0.00122726 4.58104935 0.00122726 6.22444153 0.00672913 C7.35629379 0.0065831 8.48814606 0.00643707 9.65429688 0.00628662 C13.40401613 0.00698456 17.15368601 0.01477147 20.90339661 0.02259827 C23.49985731 0.02446287 26.09631836 0.02588657 28.69277954 0.02688599 C34.83381775 0.030317 40.97483551 0.03820246 47.11586601 0.04823548 C54.10733575 0.05941014 61.09880634 0.06491048 68.0902828 0.06993091 C82.47200737 0.08038542 96.85371698 0.09797644 111.23542786 0.12025452 C111.88372347 2.82801946 112.52913388 5.53641896 113.17292786 8.24525452 C113.44653137 9.38607483 113.44653137 9.38607483 113.72566223 10.54994202 C113.99153137 11.67142639 113.99153137 11.67142639 114.26277161 12.81556702 C114.42511292 13.49635315 114.58745422 14.17713928 114.75471497 14.8785553 C115.33996244 17.60772866 115.77655433 20.36701335 116.23542786 23.12025452 C81.25542786 23.12025452 46.27542786 23.12025452 10.23542786 23.12025452 C10.23542786 35.66025452 10.23542786 48.20025452 10.23542786 61.12025452 C14.07514221 61.0521759 17.91485657 60.98409729 21.8709259 60.91395569 C34.58698001 60.69811571 47.30300816 60.5541201 60.02040386 60.44669628 C67.72787991 60.37985127 75.43361256 60.28884208 83.13996887 60.13954163 C89.86233384 60.00936755 96.58343581 59.92596066 103.30702621 59.89710408 C106.86316406 59.88025021 110.41569131 59.84108832 113.97066307 59.74576378 C138.47695894 59.11389312 138.47695894 59.11389312 145.54712391 65.6038332 C147.5308444 67.78783801 149.2544698 70.07956372 150.94146156 72.49709511 C153.19995271 75.33016053 156.09540384 77.31134046 159.04792786 79.37025452 C160.78856208 80.60423583 162.522221 81.84846852 164.23542786 83.12025452 C164.23542786 83.45025452 164.23542786 83.78025452 164.23542786 84.12025452 C142.43459596 84.19033219 120.63378263 84.24323663 98.83286095 84.27569103 C88.71033844 84.29116063 78.58788592 84.31225196 68.46540833 84.34657288 C59.64277017 84.37647234 50.8201827 84.39582885 41.99749529 84.40252 C37.32584079 84.40643132 32.65433128 84.41562546 27.98272324 84.43744469 C23.58493367 84.45781845 19.18734873 84.46408651 14.78951645 84.45957756 C13.17624296 84.46040236 11.56296257 84.46636276 9.94972992 84.47787094 C7.74453115 84.49282934 5.54010176 84.48919642 3.33488464 84.48101807 C1.48484612 84.48516613 1.48484612 84.48516613 -0.40256691 84.489398 C-4.94164273 83.99101381 -8.30328215 82.51412448 -11.61332703 79.35679626 C-13.2055208 76.26361672 -13.16045625 73.80901522 -13.18449402 70.33558655 C-13.19296356 69.66189026 -13.20143311 68.98819397 -13.2101593 68.29408264 C-13.2335156 66.07188419 -13.23455176 63.85037883 -13.23332214 61.62806702 C-13.24042539 60.07873763 -13.24812463 58.52941088 -13.25639343 56.98008728 C-13.26983562 53.73360381 -13.27140864 50.48736349 -13.26554871 47.24085999 C-13.25965739 43.08890546 -13.29022016 38.93812222 -13.33066559 34.78639412 C-13.35657087 31.5863674 -13.35941742 28.38662149 -13.35577393 25.18650436 C-13.35746303 23.65633581 -13.36708556 22.12615399 -13.38491821 20.59608841 C-13.4071633 18.45117633 -13.39738197 16.30861853 -13.37980652 14.16371155 C-13.38186096 12.94555756 -13.38391541 11.72740356 -13.3860321 10.47233582 C-12.55049555 5.96555076 -11.00543068 4.32836994 -7.76457214 1.12025452 C-4.85556201 0.15058447 -3.02469724 -0.00326994 0 0 Z " fill="#000000" transform="translate(86.76457214355469,323.87974548339844)"/>
<path d="M0 0 C3.45201639 1.47721422 5.64961936 3.43794001 8.25 6.125 C8.95640625 6.84945313 9.6628125 7.57390625 10.390625 8.3203125 C11.18726563 9.15175781 11.18726563 9.15175781 12 10 C12.45890625 9.60167969 12.9178125 9.20335937 13.390625 8.79296875 C14.65649736 7.69995711 15.92755738 6.61293134 17.203125 5.53125 C18.48671708 4.43740631 19.75036496 3.31998175 21 2.1875 C24.0226805 0.39278345 26.50523616 0.1205091 30 0 C34.98507762 1.98743983 38.46452863 5.01934609 42.20141602 8.765625 C42.78922852 9.34336166 43.37704102 9.92109833 43.98266602 10.51634216 C45.91439018 12.41968297 47.83470962 14.33403329 49.75390625 16.25 C51.10077054 17.58721426 52.4478556 18.92420619 53.79515076 20.26098633 C56.61546139 23.06335792 59.4295257 25.87183775 62.23999023 28.68408203 C65.82463291 32.26902888 69.4294294 35.83292602 73.03997898 39.39175415 C75.82917535 42.14742258 78.60445544 44.91679479 81.3761425 47.69006348 C82.69846645 49.00887013 84.0256052 50.32286884 85.35778999 51.63171387 C101.39387245 67.41300116 101.39387245 67.41300116 102.62890625 79.44140625 C102.63915028 80.81524431 102.61704699 82.18970702 102.5625 83.5625 C102.53651733 84.65582642 102.53651733 84.65582642 102.51000977 85.77124023 C102.11544559 94.80806497 99.21521795 101.63579317 92.9921875 108.24609375 C85.29566549 115.02205136 76.47405862 117.50398234 66.3828125 117.30859375 C50.71181917 115.87902276 41.24232381 103.3948935 30.78515625 92.91796875 C29.52117751 91.65466468 28.25705045 90.39150899 26.99278259 89.12849426 C24.35969164 86.49686939 21.72839756 83.86346472 19.09838867 81.22875977 C15.72346886 77.84810795 12.34403157 74.47201305 8.96326542 71.09720898 C6.35959938 68.49714806 3.75830925 65.89472067 1.15774345 63.29155922 C-0.08829881 62.04484937 -1.33508574 60.79888331 -2.58262444 59.55367088 C-4.31784479 57.82098001 -6.04984472 56.08513389 -7.78100586 54.34838867 C-8.29783432 53.83358444 -8.81466278 53.31878021 -9.34715271 52.78837585 C-12.63291142 49.48287948 -14.17545667 47.53219674 -14.5 42.875 C-14.48057266 36.85252477 -11.03768128 34.03768128 -7 30 C-6.34 29.01 -5.68 28.02 -5 27 C-8.3 23.37 -11.6 19.74 -15 16 C-10.30233025 10.33870569 -5.25276628 5.14771096 0 0 Z M25.57958984 30.19335938 C24.77835693 31.01030273 24.77835693 31.01030273 23.9609375 31.84375 C23.38085938 32.43027344 22.80078125 33.01679688 22.203125 33.62109375 C21.59984375 34.24113281 20.9965625 34.86117187 20.375 35.5 C19.76398438 36.12003906 19.15296875 36.74007812 18.5234375 37.37890625 C17.01112281 38.91485086 15.50497886 40.45686675 14 42 C19.05138213 48.10106059 24.53597911 53.68105387 30.140625 59.2734375 C31.11389498 60.2473824 32.08701659 61.2214756 33.05999756 62.19570923 C35.08558062 64.22275692 37.11293717 66.2480089 39.14160156 68.27197266 C41.74318854 70.86782475 44.34020848 73.46819266 46.93594742 76.06989098 C48.93809845 78.07564859 50.94261633 80.07902712 52.94786835 82.08168411 C53.90709599 83.04024472 54.86558148 83.99954859 55.82331085 84.95960617 C57.15615809 86.2949856 58.49254439 87.62682987 59.82910156 88.95849609 C60.58821838 89.71681732 61.34733521 90.47513855 62.12945557 91.25643921 C64.47063178 93.4386825 65.55159456 93.94904484 68.75 94.3125 C72.80901885 93.92220973 74.83301684 92.50412622 78 90 C79.65344594 86.69310813 79.75050063 83.54844198 79 80 C77.78961648 78.1080727 77.78961648 78.1080727 76.0949707 76.36328125 C75.45653229 75.66847656 74.81809387 74.97367188 74.16030884 74.2578125 C70.14619689 70.06252709 66.08363114 65.92074617 61.98046875 61.8125 C61.03112332 60.85993377 60.08184994 59.90729572 59.13264465 58.95458984 C57.16025573 56.97626387 55.18586311 54.99996333 53.21020508 53.02490234 C50.67529143 50.49009133 48.14738734 47.94840764 45.62108898 45.40501404 C43.67116336 43.44400847 41.71674895 41.48752558 39.76101112 39.53231812 C38.37197896 38.14153107 36.98749611 36.74620528 35.60307312 35.35083008 C34.76492569 34.51575928 33.92677826 33.68068848 33.06323242 32.8203125 C32.3248967 32.08055176 31.58656097 31.34079102 30.82585144 30.57861328 C28.64304575 28.69138085 27.84570947 28.28947613 25.57958984 30.19335938 Z " fill="#000000" transform="translate(410,384)"/>
<path d="M0 0 C0.7188928 -0.00382555 1.43778561 -0.00765109 2.17846304 -0.01159257 C4.57580228 -0.0218718 6.97289975 -0.01794016 9.37025452 -0.01396179 C11.09375224 -0.01831106 12.81724804 -0.02349493 14.54074097 -0.02944946 C19.21428218 -0.04282708 23.88774246 -0.04341954 28.56129909 -0.04088616 C32.46539763 -0.03981569 36.36947985 -0.04470175 40.27357489 -0.04949158 C49.48485034 -0.06058234 58.696085 -0.0610265 67.90736389 -0.05497742 C77.4049901 -0.04893614 86.90246823 -0.06125354 96.40006918 -0.08254749 C104.55990191 -0.10016835 112.71968753 -0.1061641 120.8795386 -0.10290974 C125.750645 -0.10109763 130.62164575 -0.10372596 135.49273491 -0.11762428 C140.07366424 -0.130206 144.6543628 -0.12825526 149.23528862 -0.11521339 C150.91425149 -0.11284888 152.59323061 -0.11557785 154.27217484 -0.12383652 C156.56867943 -0.13431643 158.86441143 -0.126194 161.16088867 -0.11352539 C162.44452773 -0.11369313 163.72816679 -0.11386087 165.050704 -0.1140337 C169.86671357 0.38821712 173.95186641 1.62502899 177.51893616 5.07319641 C178.99749187 7.94816586 179.51655558 10.0124918 179.64393616 13.26069641 C178.15976158 17.86944905 176.90829227 20.87176665 172.64393616 23.26069641 C170.08420556 23.55113805 167.76926971 23.67031204 165.21121216 23.64837646 C164.0843169 23.65645477 164.0843169 23.65645477 162.93465608 23.66469628 C160.41578949 23.67901066 157.89744584 23.67186372 155.3785553 23.66474915 C153.57328874 23.67045091 151.7680258 23.67741441 149.96276855 23.68554688 C145.05781562 23.70351496 140.15304122 23.70230304 135.24806523 23.69660449 C131.15498703 23.69351788 127.06194339 23.69959921 122.9688701 23.70564324 C113.31373603 23.71969887 103.65869042 23.71811856 94.0035553 23.70674133 C84.03896068 23.695259 74.07463516 23.70933539 64.11007601 23.73613781 C55.55795171 23.75828083 47.00591197 23.76493534 38.45376104 23.7590614 C33.3445669 23.75568728 28.23554527 23.75813707 23.1263752 23.77531242 C18.3221673 23.79075718 13.51835863 23.7868535 8.71416664 23.76800728 C6.95051399 23.76431453 5.18683193 23.76744979 3.42320633 23.77789307 C1.01622285 23.79105828 -1.38943027 23.77959642 -3.7963562 23.76190186 C-4.494998 23.77150686 -5.1936398 23.78111187 -5.91345257 23.79100794 C-10.64388824 23.71941094 -13.02859557 22.59398593 -16.35606384 19.26069641 C-18.20983927 15.55314555 -17.80853772 11.30746984 -17.35606384 7.26069641 C-15.4948109 3.82453714 -14.26293954 2.63465599 -10.66738033 1.15198994 C-6.97566208 0.15830522 -3.82254981 0.00611504 0 0 Z " fill="#000000" transform="translate(91.35606384277344,161.7393035888672)"/>
<path d="M0 0 C5.85400736 3.24841697 10.22463699 7.99717136 14.875 12.75 C15.65875 13.54277344 16.4425 14.33554687 17.25 15.15234375 C19.17130714 17.09708147 21.08776547 19.04634753 23 21 C28.19134746 16.68029808 32.96520228 12.10701778 37.63671875 7.23632812 C41.61718472 3.16752283 44.74295448 0.24182631 50.5 -0.375 C55.1061781 0.11851908 57.42414779 1.58716698 60.8125 4.625 C62.72850533 8.45701065 62.92049367 11.82291129 62 16 C60.17571879 19.16605326 57.62031324 21.47841128 55 24 C53.80351338 25.20196724 52.609733 26.40663157 51.41796875 27.61328125 C47.96755877 31.09839741 44.48950765 34.5540507 41 38 C45.31970192 43.19134746 49.89298222 47.96520228 54.76367188 52.63671875 C58.31414604 56.11010727 61.48320168 59.28098901 62.43359375 64.28125 C62.4404939 68.20053262 62.30336488 70.47192039 60.3125 73.9375 C56.6757823 77.18105903 54.35836783 77.9351002 49.484375 78.16796875 C42.88639598 77.26153713 38.82323336 71.54664487 34.5 66.9375 C33.57457365 65.97691652 32.64750284 65.01791446 31.71875 64.06054688 C29.46252171 61.72206026 27.22426473 59.36884193 25 57 C21.79423192 58.40478968 19.72911802 60.06450361 17.3203125 62.58984375 C16.63839844 63.29173828 15.95648438 63.99363281 15.25390625 64.71679688 C13.84032679 66.19132885 12.42884836 67.66787802 11.01953125 69.14648438 C2.83318335 77.55637661 2.83318335 77.55637661 -3.16015625 78.25 C-8.25002095 77.58110608 -10.67293963 76.13362046 -14 72 C-15.65775188 68.68449624 -15.72439114 65.55841262 -15 62 C-13.15443135 58.87465748 -10.58541057 56.52452963 -8 54 C-6.80440208 52.79584498 -5.61053811 51.58996702 -4.41796875 50.3828125 C-0.96670797 46.89991297 2.51118712 43.4452632 6 40 C4.52257538 36.55202939 2.58643234 34.37695879 -0.09765625 31.77734375 C-0.89880859 30.99166016 -1.69996094 30.20597656 -2.52539062 29.39648438 C-3.36263672 28.58501953 -4.19988281 27.77355469 -5.0625 26.9375 C-6.72462631 25.32632009 -8.38240142 23.71063555 -10.03515625 22.08984375 C-11.13935913 21.02044556 -11.13935913 21.02044556 -12.26586914 19.92944336 C-14.69941947 17.22180599 -14.98283707 15.23169949 -15.25 11.625 C-14.97926023 7.69927335 -14.44616236 6.03661534 -12 3 C-8.06805815 -0.1673976 -4.97806095 -0.61134082 0 0 Z " fill="#32CCCC" transform="translate(294,267)"/>
<path d="M0 0 C0.64691012 -0.00085442 1.29382025 -0.00170885 1.9603337 -0.00258917 C4.13763591 -0.0042421 6.31486182 0.00127436 8.49215698 0.00672913 C10.04908242 0.00701106 11.60600799 0.00685313 13.16293335 0.00628662 C17.39822861 0.0059989 21.63349573 0.01189149 25.86878443 0.01886058 C30.29173294 0.02509838 34.71468205 0.02569825 39.13763428 0.02688599 C47.51699178 0.02999804 55.89633628 0.03820974 64.27568805 0.04823548 C73.81364066 0.05940051 83.35159389 0.06490805 92.8895514 0.06993091 C112.51344151 0.08039245 132.13731992 0.09798946 151.76119995 0.12025452 C150.80648839 1.24294683 149.85051558 2.36456669 148.89401245 3.48573303 C148.36179077 4.11044998 147.82956909 4.73516693 147.28121948 5.3788147 C144.96861602 8.02829365 142.43615234 10.4179559 139.88619995 12.83509827 C137.75933903 14.93313362 137.75933903 14.93313362 136.70446873 17.05981159 C134.64234975 20.58903901 133.08791132 22.76044023 129.04162407 23.85782433 C125.53317322 24.128654 122.1017131 24.14367038 118.58322144 24.07606506 C117.24070149 24.07872215 115.89818462 24.0848614 114.55569458 24.09420776 C110.92076094 24.10928409 107.28783857 24.07467857 103.65320849 24.03020072 C99.84526104 23.99125213 96.03734484 23.99545251 92.22923279 23.99423218 C85.83597782 23.98591903 79.44348714 23.94735627 73.05050659 23.88856506 C65.66360459 23.82079723 58.27735554 23.79093087 50.89016098 23.78359002 C43.01807769 23.77570975 35.14622337 23.74489979 27.27424359 23.70479608 C25.00892994 23.69448072 22.74362903 23.68791186 20.47830009 23.68196678 C16.91664562 23.67115234 13.35543338 23.6445919 9.79397583 23.60592461 C7.86633148 23.58830081 5.93857197 23.58512318 4.010849 23.5823822 C2.2844368 23.55885429 2.2844368 23.55885429 0.52314758 23.53485107 C-0.97367727 23.52341332 -0.97367727 23.52341332 -2.500741 23.5117445 C-6.48009286 22.94277343 -9.0980928 21.14295757 -12.05130005 18.49525452 C-13.92467791 14.7484988 -14.01782562 11.21367977 -13.23880005 7.12025452 C-9.90199473 1.1634391 -6.52059942 -0.00516688 0 0 Z " fill="#000000" transform="translate(87.23880004882813,212.87974548339844)"/>
<path d="M0 0 C1.02498596 -0.00274933 2.04997192 -0.00549866 3.10601807 -0.0083313 C4.21948105 -0.00114075 5.33294403 0.0060498 6.48014832 0.01345825 C7.66106049 0.0131662 8.84197266 0.01287415 10.05867004 0.01257324 C13.28767952 0.013726 16.51651457 0.02374114 19.74548936 0.03772116 C23.12339914 0.05024254 26.50131253 0.05140012 29.87924194 0.05377197 C36.27169045 0.05998261 42.66407036 0.07638777 49.05648869 0.09647095 C56.33577933 0.11884293 63.61507328 0.12982664 70.89438975 0.13986182 C85.86466451 0.16075438 100.83487513 0.19592224 115.80509949 0.24050903 C115.18361645 2.94969236 114.55803388 5.65782031 113.93009949 8.36550903 C113.66906433 9.50632935 113.66906433 9.50632935 113.40275574 10.67019653 C112.4071152 14.94776328 111.2753856 19.09456712 109.80509949 23.24050903 C94.63658679 23.31060972 79.46808157 23.3635024 64.29944324 23.39594555 C57.2562703 23.4114103 50.21319804 23.43249223 43.17008972 23.46682739 C36.37497692 23.49993777 29.57996888 23.51735527 22.7847805 23.52514076 C20.19039449 23.53069012 17.59601429 23.54152643 15.00167274 23.5576992 C11.37197549 23.57942935 7.7427125 23.58247773 4.11296082 23.58108521 C2.49887077 23.59726395 2.49887077 23.59726395 0.85217285 23.61376953 C-8.35547262 23.57546514 -8.35547262 23.57546514 -12.19490051 20.24050903 C-15.02650584 15.99310105 -14.84012368 12.2270486 -14.19490051 7.24050903 C-10.9376757 1.44988715 -6.4091021 -0.0133107 0 0 Z " fill="#000000" transform="translate(88.19490051269531,262.7594909667969)"/>
<path d="M0 0 C1.34581902 -0.00856522 1.34581902 -0.00856522 2.71882629 -0.01730347 C4.19165825 -0.01898026 4.19165825 -0.01898026 5.69424438 -0.02069092 C6.73028305 -0.02565582 7.76632172 -0.03062073 8.83375549 -0.03573608 C12.26723897 -0.05036279 15.70067626 -0.05716024 19.13418579 -0.06268311 C21.51688641 -0.06843371 23.89958701 -0.07419146 26.2822876 -0.07995605 C31.28077409 -0.0904672 36.27924449 -0.09630927 41.27774048 -0.09979248 C47.68602825 -0.10528033 54.09410387 -0.1293143 60.50232506 -0.15776443 C65.42479069 -0.17637675 70.34720506 -0.18159565 75.26970291 -0.18312836 C77.63242377 -0.1861581 79.99514365 -0.1941974 82.35783005 -0.20731354 C85.6615393 -0.22434581 88.96472794 -0.22250056 92.26846313 -0.21600342 C93.24630264 -0.2252182 94.22414215 -0.23443298 95.23161316 -0.243927 C101.33172278 -0.2062991 104.78470821 0.60675079 109.42324829 4.76544189 C111.29817341 8.51529213 111.38334271 12.04356506 110.61074829 16.14044189 C108.6773328 19.71096399 106.5271893 21.83496156 102.61074829 23.14044189 C101.14998528 23.2351914 99.68531859 23.27529979 98.22149658 23.28088379 C96.87567757 23.28944901 96.87567757 23.28944901 95.50267029 23.29818726 C94.02983833 23.29986404 94.02983833 23.29986404 92.5272522 23.30157471 C91.49121353 23.30653961 90.45517487 23.31150452 89.38774109 23.31661987 C85.95425761 23.33124658 82.52082033 23.33804403 79.08731079 23.34356689 C76.70461017 23.3493175 74.32190957 23.35507525 71.93920898 23.36083984 C66.94072249 23.37135099 61.94225209 23.37719306 56.9437561 23.38067627 C50.53546834 23.38616412 44.12739271 23.41019809 37.71917152 23.43864822 C32.79670589 23.45726054 27.87429152 23.46247944 22.95179367 23.46401215 C20.58907281 23.46704189 18.22635293 23.47508119 15.86366653 23.48819733 C12.55995729 23.5052296 9.25676864 23.50338435 5.95303345 23.49688721 C4.48627419 23.51070938 4.48627419 23.51070938 2.98988342 23.52481079 C-3.1102262 23.48718288 -6.56321163 22.674133 -11.20175171 18.51544189 C-13.07667683 14.76559166 -13.16184613 11.23731873 -12.38925171 7.14044189 C-9.50003302 1.80479665 -5.91213772 0.02255286 0 0 Z " fill="#000000" transform="translate(86.38925170898438,111.85955810546875)"/>
</svg>
